<mxfile host="65bd71144e">
    <diagram id="YNOnqz7ikMqyMrVB4Wm3" name="Class Diagram">
        <mxGraphModel dx="3273" dy="1708" grid="1" gridSize="10" guides="1" tooltips="1" connect="1" arrows="1" fold="1" page="1" pageScale="1" pageWidth="827" pageHeight="1169" math="0" shadow="0">
            <root>
                <mxCell id="0"/>
                <mxCell id="1" parent="0"/>
                <mxCell id="59" style="edgeStyle=none;html=1;" parent="1" source="47" target="55" edge="1">
                    <mxGeometry relative="1" as="geometry"/>
                </mxCell>
                <mxCell id="85" style="edgeStyle=none;html=1;" parent="1" source="47" target="77" edge="1">
                    <mxGeometry relative="1" as="geometry"/>
                </mxCell>
                <mxCell id="90" style="edgeStyle=none;html=1;" parent="1" source="47" target="86" edge="1">
                    <mxGeometry relative="1" as="geometry"/>
                </mxCell>
                <mxCell id="96" style="edgeStyle=none;html=1;" parent="1" source="47" target="91" edge="1">
                    <mxGeometry relative="1" as="geometry"/>
                </mxCell>
                <mxCell id="114" style="edgeStyle=none;html=1;" parent="1" source="47" target="110" edge="1">
                    <mxGeometry relative="1" as="geometry"/>
                </mxCell>
                <mxCell id="124" style="edgeStyle=none;html=1;" parent="1" source="47" target="116" edge="1">
                    <mxGeometry relative="1" as="geometry"/>
                </mxCell>
                <mxCell id="126" style="edgeStyle=none;html=1;" parent="1" source="47" target="120" edge="1">
                    <mxGeometry relative="1" as="geometry"/>
                </mxCell>
                <mxCell id="47" value="Router" style="swimlane;fontStyle=1;align=center;verticalAlign=top;childLayout=stackLayout;horizontal=1;startSize=26;horizontalStack=0;resizeParent=1;resizeParentMax=0;resizeLast=0;collapsible=1;marginBottom=0;fillColor=#008a00;fontColor=#ffffff;strokeColor=#005700;" parent="1" vertex="1">
                    <mxGeometry x="-680" y="-10" width="180" height="60" as="geometry"/>
                </mxCell>
                <mxCell id="49" value="" style="line;strokeWidth=1;fillColor=none;align=left;verticalAlign=middle;spacingTop=-1;spacingLeft=3;spacingRight=3;rotatable=0;labelPosition=right;points=[];portConstraint=eastwest;" parent="47" vertex="1">
                    <mxGeometry y="26" width="180" height="8" as="geometry"/>
                </mxCell>
                <mxCell id="50" value="+ getRoutes(): expressRouter" style="text;strokeColor=none;fillColor=none;align=left;verticalAlign=top;spacingLeft=4;spacingRight=4;overflow=hidden;rotatable=0;points=[[0,0.5],[1,0.5]];portConstraint=eastwest;fontStyle=4" parent="47" vertex="1">
                    <mxGeometry y="34" width="180" height="26" as="geometry"/>
                </mxCell>
                <mxCell id="55" value="UserController" style="swimlane;fontStyle=1;align=center;verticalAlign=top;childLayout=stackLayout;horizontal=1;startSize=26;horizontalStack=0;resizeParent=1;resizeParentMax=0;resizeLast=0;collapsible=1;marginBottom=0;fillColor=#f0a30a;fontColor=#000000;strokeColor=#BD7000;" parent="1" vertex="1">
                    <mxGeometry x="-260" y="-170" width="160" height="160" as="geometry">
                        <mxRectangle x="-450" y="50" width="120" height="26" as="alternateBounds"/>
                    </mxGeometry>
                </mxCell>
                <mxCell id="56" value="+ field: type" style="text;strokeColor=none;fillColor=none;align=left;verticalAlign=top;spacingLeft=4;spacingRight=4;overflow=hidden;rotatable=0;points=[[0,0.5],[1,0.5]];portConstraint=eastwest;" parent="55" vertex="1">
                    <mxGeometry y="26" width="160" height="26" as="geometry"/>
                </mxCell>
                <mxCell id="57" value="" style="line;strokeWidth=1;fillColor=none;align=left;verticalAlign=middle;spacingTop=-1;spacingLeft=3;spacingRight=3;rotatable=0;labelPosition=right;points=[];portConstraint=eastwest;" parent="55" vertex="1">
                    <mxGeometry y="52" width="160" height="8" as="geometry"/>
                </mxCell>
                <object label="+ index(req, res)&#10;+ create(req, res)&#10;+ store(req, res)&#10;+ edit(req, res)&#10;+ update(req, res)&#10;+ destroy(req, res)" id="58">
                    <mxCell style="text;strokeColor=none;fillColor=none;align=left;verticalAlign=top;spacingLeft=4;spacingRight=4;overflow=hidden;rotatable=0;points=[[0,0.5],[1,0.5]];portConstraint=eastwest;" parent="55" vertex="1">
                        <mxGeometry y="60" width="160" height="100" as="geometry"/>
                    </mxCell>
                </object>
                <mxCell id="72" value="CoreUsersModel" style="swimlane;fontStyle=1;align=center;verticalAlign=top;childLayout=stackLayout;horizontal=1;startSize=26;horizontalStack=0;resizeParent=1;resizeParentMax=0;resizeLast=0;collapsible=1;marginBottom=0;fillColor=#a20025;fontColor=#ffffff;strokeColor=#6F0000;" parent="1" vertex="1">
                    <mxGeometry x="110" y="-240" width="160" height="150" as="geometry"/>
                </mxCell>
                <mxCell id="73" value="+ field: type" style="text;strokeColor=none;fillColor=none;align=left;verticalAlign=top;spacingLeft=4;spacingRight=4;overflow=hidden;rotatable=0;points=[[0,0.5],[1,0.5]];portConstraint=eastwest;" parent="72" vertex="1">
                    <mxGeometry y="26" width="160" height="26" as="geometry"/>
                </mxCell>
                <mxCell id="74" value="" style="line;strokeWidth=1;fillColor=none;align=left;verticalAlign=middle;spacingTop=-1;spacingLeft=3;spacingRight=3;rotatable=0;labelPosition=right;points=[];portConstraint=eastwest;" parent="72" vertex="1">
                    <mxGeometry y="52" width="160" height="8" as="geometry"/>
                </mxCell>
                <mxCell id="75" value="+ find({})&#10;+ findById(id)&#10;+ findByIdAndDelete(id)&#10;+ findByIdAndUpdate(id, {})&#10;+ save()&#10;" style="text;strokeColor=none;fillColor=none;align=left;verticalAlign=top;spacingLeft=4;spacingRight=4;overflow=hidden;rotatable=0;points=[[0,0.5],[1,0.5]];portConstraint=eastwest;fontStyle=0" parent="72" vertex="1">
                    <mxGeometry y="60" width="160" height="90" as="geometry"/>
                </mxCell>
                <mxCell id="76" style="edgeStyle=none;html=1;" parent="1" source="58" target="72" edge="1">
                    <mxGeometry relative="1" as="geometry"/>
                </mxCell>
                <mxCell id="77" value="AuthMiddleware" style="swimlane;fontStyle=1;align=center;verticalAlign=top;childLayout=stackLayout;horizontal=1;startSize=26;horizontalStack=0;resizeParent=1;resizeParentMax=0;resizeLast=0;collapsible=1;marginBottom=0;fillColor=#6a00ff;fontColor=#ffffff;strokeColor=#3700CC;" parent="1" vertex="1">
                    <mxGeometry x="-670" y="-230" width="180" height="100" as="geometry"/>
                </mxCell>
                <mxCell id="78" value="+ field: type" style="text;strokeColor=none;fillColor=none;align=left;verticalAlign=top;spacingLeft=4;spacingRight=4;overflow=hidden;rotatable=0;points=[[0,0.5],[1,0.5]];portConstraint=eastwest;" parent="77" vertex="1">
                    <mxGeometry y="26" width="180" height="26" as="geometry"/>
                </mxCell>
                <mxCell id="79" value="" style="line;strokeWidth=1;fillColor=none;align=left;verticalAlign=middle;spacingTop=-1;spacingLeft=3;spacingRight=3;rotatable=0;labelPosition=right;points=[];portConstraint=eastwest;" parent="77" vertex="1">
                    <mxGeometry y="52" width="180" height="8" as="geometry"/>
                </mxCell>
                <mxCell id="80" value="+ checkJWT(req, res, next)&#10;+ checkSession(req, res, next)" style="text;strokeColor=none;fillColor=none;align=left;verticalAlign=top;spacingLeft=4;spacingRight=4;overflow=hidden;rotatable=0;points=[[0,0.5],[1,0.5]];portConstraint=eastwest;" parent="77" vertex="1">
                    <mxGeometry y="60" width="180" height="40" as="geometry"/>
                </mxCell>
                <mxCell id="81" value="CoreCollectionsModel" style="swimlane;fontStyle=1;align=center;verticalAlign=top;childLayout=stackLayout;horizontal=1;startSize=26;horizontalStack=0;resizeParent=1;resizeParentMax=0;resizeLast=0;collapsible=1;marginBottom=0;fillColor=#a20025;fontColor=#ffffff;strokeColor=#6F0000;" parent="1" vertex="1">
                    <mxGeometry x="100" y="200" width="160" height="150" as="geometry"/>
                </mxCell>
                <mxCell id="82" value="+ field: type" style="text;strokeColor=none;fillColor=none;align=left;verticalAlign=top;spacingLeft=4;spacingRight=4;overflow=hidden;rotatable=0;points=[[0,0.5],[1,0.5]];portConstraint=eastwest;" parent="81" vertex="1">
                    <mxGeometry y="26" width="160" height="26" as="geometry"/>
                </mxCell>
                <mxCell id="83" value="" style="line;strokeWidth=1;fillColor=none;align=left;verticalAlign=middle;spacingTop=-1;spacingLeft=3;spacingRight=3;rotatable=0;labelPosition=right;points=[];portConstraint=eastwest;" parent="81" vertex="1">
                    <mxGeometry y="52" width="160" height="8" as="geometry"/>
                </mxCell>
                <mxCell id="84" value="+ find({})&#10;+ findById(id)&#10;+ findByIdAndDelete(id)&#10;+ findByIdAndUpdate(id, {})&#10;+ save()&#10;" style="text;strokeColor=none;fillColor=none;align=left;verticalAlign=top;spacingLeft=4;spacingRight=4;overflow=hidden;rotatable=0;points=[[0,0.5],[1,0.5]];portConstraint=eastwest;fontStyle=0" parent="81" vertex="1">
                    <mxGeometry y="60" width="160" height="90" as="geometry"/>
                </mxCell>
                <mxCell id="86" value="AuthController" style="swimlane;fontStyle=1;align=center;verticalAlign=top;childLayout=stackLayout;horizontal=1;startSize=26;horizontalStack=0;resizeParent=1;resizeParentMax=0;resizeLast=0;collapsible=1;marginBottom=0;fillColor=#f0a30a;fontColor=#000000;strokeColor=#BD7000;" parent="1" vertex="1">
                    <mxGeometry x="-260" y="-330" width="160" height="130" as="geometry"/>
                </mxCell>
                <mxCell id="87" value="+ field: type" style="text;strokeColor=none;fillColor=none;align=left;verticalAlign=top;spacingLeft=4;spacingRight=4;overflow=hidden;rotatable=0;points=[[0,0.5],[1,0.5]];portConstraint=eastwest;" parent="86" vertex="1">
                    <mxGeometry y="26" width="160" height="26" as="geometry"/>
                </mxCell>
                <mxCell id="88" value="" style="line;strokeWidth=1;fillColor=none;align=left;verticalAlign=middle;spacingTop=-1;spacingLeft=3;spacingRight=3;rotatable=0;labelPosition=right;points=[];portConstraint=eastwest;" parent="86" vertex="1">
                    <mxGeometry y="52" width="160" height="8" as="geometry"/>
                </mxCell>
                <mxCell id="89" value="+ getJWT(req, res)&#10;+ login(req, res)&#10;+ loginProcess(req, res)&#10;+ logout(req, res)" style="text;strokeColor=none;fillColor=none;align=left;verticalAlign=top;spacingLeft=4;spacingRight=4;overflow=hidden;rotatable=0;points=[[0,0.5],[1,0.5]];portConstraint=eastwest;" parent="86" vertex="1">
                    <mxGeometry y="60" width="160" height="70" as="geometry"/>
                </mxCell>
                <mxCell id="95" style="edgeStyle=none;html=1;" parent="1" source="91" target="81" edge="1">
                    <mxGeometry relative="1" as="geometry"/>
                </mxCell>
                <mxCell id="91" value="CollectionsController" style="swimlane;fontStyle=1;align=center;verticalAlign=top;childLayout=stackLayout;horizontal=1;startSize=26;horizontalStack=0;resizeParent=1;resizeParentMax=0;resizeLast=0;collapsible=1;marginBottom=0;fillColor=#f0a30a;fontColor=#000000;strokeColor=#BD7000;" parent="1" vertex="1">
                    <mxGeometry x="-310" y="70" width="160" height="160" as="geometry">
                        <mxRectangle x="-450" y="50" width="120" height="26" as="alternateBounds"/>
                    </mxGeometry>
                </mxCell>
                <mxCell id="92" value="+ field: type" style="text;strokeColor=none;fillColor=none;align=left;verticalAlign=top;spacingLeft=4;spacingRight=4;overflow=hidden;rotatable=0;points=[[0,0.5],[1,0.5]];portConstraint=eastwest;" parent="91" vertex="1">
                    <mxGeometry y="26" width="160" height="26" as="geometry"/>
                </mxCell>
                <mxCell id="93" value="" style="line;strokeWidth=1;fillColor=none;align=left;verticalAlign=middle;spacingTop=-1;spacingLeft=3;spacingRight=3;rotatable=0;labelPosition=right;points=[];portConstraint=eastwest;" parent="91" vertex="1">
                    <mxGeometry y="52" width="160" height="8" as="geometry"/>
                </mxCell>
                <object label="+ index(req, res)&#10;+ create(req, res)&#10;+ store(req, res)&#10;+ edit(req, res)&#10;+ update(req, res)&#10;+ destroy(req, res)" id="94">
                    <mxCell style="text;strokeColor=none;fillColor=none;align=left;verticalAlign=top;spacingLeft=4;spacingRight=4;overflow=hidden;rotatable=0;points=[[0,0.5],[1,0.5]];portConstraint=eastwest;" parent="91" vertex="1">
                        <mxGeometry y="60" width="160" height="100" as="geometry"/>
                    </mxCell>
                </object>
                <mxCell id="128" style="edgeStyle=none;html=1;" parent="1" source="97" target="81" edge="1">
                    <mxGeometry relative="1" as="geometry"/>
                </mxCell>
                <mxCell id="97" value="DynamicResources" style="swimlane;fontStyle=1;align=center;verticalAlign=top;childLayout=stackLayout;horizontal=1;startSize=26;horizontalStack=0;resizeParent=1;resizeParentMax=0;resizeLast=0;collapsible=1;marginBottom=0;fillColor=#60a917;strokeColor=#2D7600;fontColor=#ffffff;" parent="1" vertex="1">
                    <mxGeometry x="-200" y="460" width="230" height="130" as="geometry"/>
                </mxCell>
                <mxCell id="98" value="+ field: type" style="text;strokeColor=none;fillColor=none;align=left;verticalAlign=top;spacingLeft=4;spacingRight=4;overflow=hidden;rotatable=0;points=[[0,0.5],[1,0.5]];portConstraint=eastwest;" parent="97" vertex="1">
                    <mxGeometry y="26" width="230" height="26" as="geometry"/>
                </mxCell>
                <mxCell id="99" value="" style="line;strokeWidth=1;fillColor=none;align=left;verticalAlign=middle;spacingTop=-1;spacingLeft=3;spacingRight=3;rotatable=0;labelPosition=right;points=[];portConstraint=eastwest;" parent="97" vertex="1">
                    <mxGeometry y="52" width="230" height="8" as="geometry"/>
                </mxCell>
                <mxCell id="100" value="+ getObjectsAndModel(pathName, req)&#10;+ getDynamicModel(objCrud)&#10;+ getSchema(objCrud)&#10;+ deleteDynamicModel(objCrud)" style="text;strokeColor=none;fillColor=none;align=left;verticalAlign=top;spacingLeft=4;spacingRight=4;overflow=hidden;rotatable=0;points=[[0,0.5],[1,0.5]];portConstraint=eastwest;" parent="97" vertex="1">
                    <mxGeometry y="60" width="230" height="70" as="geometry"/>
                </mxCell>
                <mxCell id="101" value="FieldsConfigController" style="swimlane;fontStyle=1;align=center;verticalAlign=top;childLayout=stackLayout;horizontal=1;startSize=26;horizontalStack=0;resizeParent=1;resizeParentMax=0;resizeLast=0;collapsible=1;marginBottom=0;fillColor=#f0a30a;fontColor=#000000;strokeColor=#BD7000;" parent="1" vertex="1">
                    <mxGeometry x="-325" y="280" width="160" height="100" as="geometry">
                        <mxRectangle x="-450" y="50" width="120" height="26" as="alternateBounds"/>
                    </mxGeometry>
                </mxCell>
                <mxCell id="102" value="+ field: type" style="text;strokeColor=none;fillColor=none;align=left;verticalAlign=top;spacingLeft=4;spacingRight=4;overflow=hidden;rotatable=0;points=[[0,0.5],[1,0.5]];portConstraint=eastwest;" parent="101" vertex="1">
                    <mxGeometry y="26" width="160" height="26" as="geometry"/>
                </mxCell>
                <mxCell id="103" value="" style="line;strokeWidth=1;fillColor=none;align=left;verticalAlign=middle;spacingTop=-1;spacingLeft=3;spacingRight=3;rotatable=0;labelPosition=right;points=[];portConstraint=eastwest;" parent="101" vertex="1">
                    <mxGeometry y="52" width="160" height="8" as="geometry"/>
                </mxCell>
                <object label="+ index(req, res)&#10;+ update(req, res)" id="104">
                    <mxCell style="text;strokeColor=none;fillColor=none;align=left;verticalAlign=top;spacingLeft=4;spacingRight=4;overflow=hidden;rotatable=0;points=[[0,0.5],[1,0.5]];portConstraint=eastwest;" parent="101" vertex="1">
                        <mxGeometry y="60" width="160" height="40" as="geometry"/>
                    </mxCell>
                </object>
                <mxCell id="107" style="edgeStyle=none;html=1;" parent="1" source="50" target="101" edge="1">
                    <mxGeometry relative="1" as="geometry"/>
                </mxCell>
                <mxCell id="108" style="edgeStyle=none;html=1;exitX=1;exitY=0.5;exitDx=0;exitDy=0;" parent="1" source="102" target="81" edge="1">
                    <mxGeometry relative="1" as="geometry"/>
                </mxCell>
                <mxCell id="109" style="edgeStyle=none;html=1;exitX=1;exitY=0.5;exitDx=0;exitDy=0;" parent="1" source="89" target="72" edge="1">
                    <mxGeometry relative="1" as="geometry"/>
                </mxCell>
                <mxCell id="115" style="edgeStyle=none;html=1;" parent="1" source="110" target="81" edge="1">
                    <mxGeometry relative="1" as="geometry"/>
                </mxCell>
                <mxCell id="110" value="PanelAdminController" style="swimlane;fontStyle=1;align=center;verticalAlign=top;childLayout=stackLayout;horizontal=1;startSize=26;horizontalStack=0;resizeParent=1;resizeParentMax=0;resizeLast=0;collapsible=1;marginBottom=0;fillColor=#f0a30a;fontColor=#000000;strokeColor=#BD7000;" parent="1" vertex="1">
                    <mxGeometry x="-90" width="160" height="100" as="geometry">
                        <mxRectangle x="-450" y="50" width="120" height="26" as="alternateBounds"/>
                    </mxGeometry>
                </mxCell>
                <mxCell id="111" value="+ field: type" style="text;strokeColor=none;fillColor=none;align=left;verticalAlign=top;spacingLeft=4;spacingRight=4;overflow=hidden;rotatable=0;points=[[0,0.5],[1,0.5]];portConstraint=eastwest;" parent="110" vertex="1">
                    <mxGeometry y="26" width="160" height="26" as="geometry"/>
                </mxCell>
                <mxCell id="112" value="" style="line;strokeWidth=1;fillColor=none;align=left;verticalAlign=middle;spacingTop=-1;spacingLeft=3;spacingRight=3;rotatable=0;labelPosition=right;points=[];portConstraint=eastwest;" parent="110" vertex="1">
                    <mxGeometry y="52" width="160" height="8" as="geometry"/>
                </mxCell>
                <object label="+ index(req, res)" id="113">
                    <mxCell style="text;strokeColor=none;fillColor=none;align=left;verticalAlign=top;spacingLeft=4;spacingRight=4;overflow=hidden;rotatable=0;points=[[0,0.5],[1,0.5]];portConstraint=eastwest;" parent="110" vertex="1">
                        <mxGeometry y="60" width="160" height="40" as="geometry"/>
                    </mxCell>
                </object>
                <mxCell id="125" style="edgeStyle=none;html=1;" parent="1" source="116" target="97" edge="1">
                    <mxGeometry relative="1" as="geometry"/>
                </mxCell>
                <mxCell id="uJpm4n0Ei-6XNWIfcuvK-173" style="edgeStyle=none;html=1;entryX=0.25;entryY=0;entryDx=0;entryDy=0;endArrow=classic;endFill=1;startSize=6;endSize=6;" edge="1" parent="1" source="116" target="uJpm4n0Ei-6XNWIfcuvK-129">
                    <mxGeometry relative="1" as="geometry"/>
                </mxCell>
                <mxCell id="ueKgROSvyOMEfXGONKWb-133" style="edgeStyle=orthogonalEdgeStyle;html=1;endArrow=classic;endFill=1;startSize=6;endSize=6;" edge="1" parent="1" source="116" target="ueKgROSvyOMEfXGONKWb-128">
                    <mxGeometry relative="1" as="geometry">
                        <Array as="points">
                            <mxPoint x="-855" y="480"/>
                            <mxPoint x="-855" y="435"/>
                        </Array>
                    </mxGeometry>
                </mxCell>
                <mxCell id="116" value="AutoCrudController" style="swimlane;fontStyle=1;align=center;verticalAlign=top;childLayout=stackLayout;horizontal=1;startSize=26;horizontalStack=0;resizeParent=1;resizeParentMax=0;resizeLast=0;collapsible=1;marginBottom=0;fillColor=#f0a30a;fontColor=#000000;strokeColor=#BD7000;" parent="1" vertex="1">
                    <mxGeometry x="-1070" y="445" width="160" height="160" as="geometry">
                        <mxRectangle x="-450" y="50" width="120" height="26" as="alternateBounds"/>
                    </mxGeometry>
                </mxCell>
                <mxCell id="117" value="+ field: type" style="text;strokeColor=none;fillColor=none;align=left;verticalAlign=top;spacingLeft=4;spacingRight=4;overflow=hidden;rotatable=0;points=[[0,0.5],[1,0.5]];portConstraint=eastwest;" parent="116" vertex="1">
                    <mxGeometry y="26" width="160" height="26" as="geometry"/>
                </mxCell>
                <mxCell id="118" value="" style="line;strokeWidth=1;fillColor=none;align=left;verticalAlign=middle;spacingTop=-1;spacingLeft=3;spacingRight=3;rotatable=0;labelPosition=right;points=[];portConstraint=eastwest;" parent="116" vertex="1">
                    <mxGeometry y="52" width="160" height="8" as="geometry"/>
                </mxCell>
                <object label="+ index(req, res)&#10;+ create(req, res)&#10;+ store(req, res)&#10;+ edit(req, res)&#10;+ update(req, res)&#10;+ destroy(req, res)" id="119">
                    <mxCell style="text;strokeColor=none;fillColor=none;align=left;verticalAlign=top;spacingLeft=4;spacingRight=4;overflow=hidden;rotatable=0;points=[[0,0.5],[1,0.5]];portConstraint=eastwest;" parent="116" vertex="1">
                        <mxGeometry y="60" width="160" height="100" as="geometry"/>
                    </mxCell>
                </object>
                <mxCell id="127" style="edgeStyle=none;html=1;" parent="1" source="120" target="97" edge="1">
                    <mxGeometry relative="1" as="geometry"/>
                </mxCell>
                <mxCell id="ueKgROSvyOMEfXGONKWb-132" style="edgeStyle=orthogonalEdgeStyle;html=1;endArrow=classic;endFill=1;startSize=6;endSize=6;" edge="1" parent="1" source="120" target="ueKgROSvyOMEfXGONKWb-128">
                    <mxGeometry relative="1" as="geometry"/>
                </mxCell>
                <mxCell id="120" value="ApiAutoCrudController" style="swimlane;fontStyle=1;align=center;verticalAlign=top;childLayout=stackLayout;horizontal=1;startSize=26;horizontalStack=0;resizeParent=1;resizeParentMax=0;resizeLast=0;collapsible=1;marginBottom=0;fillColor=#f0a30a;fontColor=#000000;strokeColor=#BD7000;" parent="1" vertex="1">
                    <mxGeometry x="-610" y="270" width="160" height="140" as="geometry">
                        <mxRectangle x="-450" y="50" width="120" height="26" as="alternateBounds"/>
                    </mxGeometry>
                </mxCell>
                <mxCell id="121" value="+ field: type" style="text;strokeColor=none;fillColor=none;align=left;verticalAlign=top;spacingLeft=4;spacingRight=4;overflow=hidden;rotatable=0;points=[[0,0.5],[1,0.5]];portConstraint=eastwest;" parent="120" vertex="1">
                    <mxGeometry y="26" width="160" height="26" as="geometry"/>
                </mxCell>
                <mxCell id="122" value="" style="line;strokeWidth=1;fillColor=none;align=left;verticalAlign=middle;spacingTop=-1;spacingLeft=3;spacingRight=3;rotatable=0;labelPosition=right;points=[];portConstraint=eastwest;" parent="120" vertex="1">
                    <mxGeometry y="52" width="160" height="8" as="geometry"/>
                </mxCell>
                <object label="+ index(req, res)&#10;+ store(req, res)&#10;+ show(req, res)&#10;+ update(req, res)&#10;+ destroy(req, res)" id="123">
                    <mxCell style="text;strokeColor=none;fillColor=none;align=left;verticalAlign=top;spacingLeft=4;spacingRight=4;overflow=hidden;rotatable=0;points=[[0,0.5],[1,0.5]];portConstraint=eastwest;" parent="120" vertex="1">
                        <mxGeometry y="60" width="160" height="80" as="geometry"/>
                    </mxCell>
                </object>
                <mxCell id="uJpm4n0Ei-6XNWIfcuvK-128" style="edgeStyle=orthogonalEdgeStyle;html=1;endArrow=classic;endFill=1;startSize=6;endSize=6;" edge="1" parent="1" source="uJpm4n0Ei-6XNWIfcuvK-129" target="uJpm4n0Ei-6XNWIfcuvK-157">
                    <mxGeometry relative="1" as="geometry"/>
                </mxCell>
                <mxCell id="uJpm4n0Ei-6XNWIfcuvK-129" value="Form" style="swimlane;fontStyle=1;align=center;verticalAlign=top;childLayout=stackLayout;horizontal=1;startSize=26;horizontalStack=0;resizeParent=1;resizeParentMax=0;resizeLast=0;collapsible=1;marginBottom=0;fillColor=#1ba1e2;fontColor=#ffffff;strokeColor=#006EAF;" vertex="1" parent="1">
                    <mxGeometry x="-700" y="650" width="410" height="150" as="geometry"/>
                </mxCell>
                <mxCell id="uJpm4n0Ei-6XNWIfcuvK-130" value="+ action: String&#10;+ fields: Array&#10;+ data: Object&#10;+ cancelUrl: String" style="text;strokeColor=none;fillColor=none;align=left;verticalAlign=top;spacingLeft=4;spacingRight=4;overflow=hidden;rotatable=0;points=[[0,0.5],[1,0.5]];portConstraint=eastwest;" vertex="1" parent="uJpm4n0Ei-6XNWIfcuvK-129">
                    <mxGeometry y="26" width="410" height="64" as="geometry"/>
                </mxCell>
                <mxCell id="uJpm4n0Ei-6XNWIfcuvK-131" value="" style="line;strokeWidth=1;fillColor=none;align=left;verticalAlign=middle;spacingTop=-1;spacingLeft=3;spacingRight=3;rotatable=0;labelPosition=right;points=[];portConstraint=eastwest;" vertex="1" parent="uJpm4n0Ei-6XNWIfcuvK-129">
                    <mxGeometry y="90" width="410" height="8" as="geometry"/>
                </mxCell>
                <mxCell id="uJpm4n0Ei-6XNWIfcuvK-132" value="+ constructor(url: String, fields: Array, cancelUrl: String, data: Object): void&#10;+ dsp(): String" style="text;strokeColor=none;fillColor=none;align=left;verticalAlign=top;spacingLeft=4;spacingRight=4;overflow=hidden;rotatable=0;points=[[0,0.5],[1,0.5]];portConstraint=eastwest;" vertex="1" parent="uJpm4n0Ei-6XNWIfcuvK-129">
                    <mxGeometry y="98" width="410" height="52" as="geometry"/>
                </mxCell>
                <mxCell id="uJpm4n0Ei-6XNWIfcuvK-133" style="edgeStyle=orthogonalEdgeStyle;html=1;endArrow=block;endFill=1;startSize=6;endSize=12;" edge="1" parent="1" source="uJpm4n0Ei-6XNWIfcuvK-134" target="uJpm4n0Ei-6XNWIfcuvK-161">
                    <mxGeometry relative="1" as="geometry"/>
                </mxCell>
                <mxCell id="uJpm4n0Ei-6XNWIfcuvK-134" value="Email" style="swimlane;fontStyle=1;align=center;verticalAlign=top;childLayout=stackLayout;horizontal=1;startSize=26;horizontalStack=0;resizeParent=1;resizeParentMax=0;resizeLast=0;collapsible=1;marginBottom=0;fillColor=#1ba1e2;fontColor=#ffffff;strokeColor=#006EAF;" vertex="1" parent="1">
                    <mxGeometry x="-1340" y="1020" width="180" height="86" as="geometry"/>
                </mxCell>
                <mxCell id="uJpm4n0Ei-6XNWIfcuvK-135" value="+ type: String" style="text;strokeColor=none;fillColor=none;align=left;verticalAlign=top;spacingLeft=4;spacingRight=4;overflow=hidden;rotatable=0;points=[[0,0.5],[1,0.5]];portConstraint=eastwest;" vertex="1" parent="uJpm4n0Ei-6XNWIfcuvK-134">
                    <mxGeometry y="26" width="180" height="26" as="geometry"/>
                </mxCell>
                <mxCell id="uJpm4n0Ei-6XNWIfcuvK-136" value="" style="line;strokeWidth=1;fillColor=none;align=left;verticalAlign=middle;spacingTop=-1;spacingLeft=3;spacingRight=3;rotatable=0;labelPosition=right;points=[];portConstraint=eastwest;" vertex="1" parent="uJpm4n0Ei-6XNWIfcuvK-134">
                    <mxGeometry y="52" width="180" height="8" as="geometry"/>
                </mxCell>
                <mxCell id="uJpm4n0Ei-6XNWIfcuvK-137" value="+ constructor(confInput: Object)" style="text;strokeColor=none;fillColor=none;align=left;verticalAlign=top;spacingLeft=4;spacingRight=4;overflow=hidden;rotatable=0;points=[[0,0.5],[1,0.5]];portConstraint=eastwest;" vertex="1" parent="uJpm4n0Ei-6XNWIfcuvK-134">
                    <mxGeometry y="60" width="180" height="26" as="geometry"/>
                </mxCell>
                <mxCell id="uJpm4n0Ei-6XNWIfcuvK-138" style="edgeStyle=orthogonalEdgeStyle;html=1;endArrow=block;endFill=1;startSize=6;endSize=12;exitX=0.5;exitY=0;exitDx=0;exitDy=0;" edge="1" parent="1" source="uJpm4n0Ei-6XNWIfcuvK-139" target="uJpm4n0Ei-6XNWIfcuvK-161">
                    <mxGeometry relative="1" as="geometry">
                        <mxPoint x="-1185" y="748" as="targetPoint"/>
                        <Array as="points">
                            <mxPoint x="-1060" y="878"/>
                        </Array>
                    </mxGeometry>
                </mxCell>
                <mxCell id="uJpm4n0Ei-6XNWIfcuvK-139" value="Number" style="swimlane;fontStyle=1;align=center;verticalAlign=top;childLayout=stackLayout;horizontal=1;startSize=26;horizontalStack=0;resizeParent=1;resizeParentMax=0;resizeLast=0;collapsible=1;marginBottom=0;fillColor=#1ba1e2;fontColor=#ffffff;strokeColor=#006EAF;" vertex="1" parent="1">
                    <mxGeometry x="-1150" y="1020" width="180" height="86" as="geometry"/>
                </mxCell>
                <mxCell id="uJpm4n0Ei-6XNWIfcuvK-140" value="+ type: String" style="text;strokeColor=none;fillColor=none;align=left;verticalAlign=top;spacingLeft=4;spacingRight=4;overflow=hidden;rotatable=0;points=[[0,0.5],[1,0.5]];portConstraint=eastwest;" vertex="1" parent="uJpm4n0Ei-6XNWIfcuvK-139">
                    <mxGeometry y="26" width="180" height="26" as="geometry"/>
                </mxCell>
                <mxCell id="uJpm4n0Ei-6XNWIfcuvK-141" value="" style="line;strokeWidth=1;fillColor=none;align=left;verticalAlign=middle;spacingTop=-1;spacingLeft=3;spacingRight=3;rotatable=0;labelPosition=right;points=[];portConstraint=eastwest;" vertex="1" parent="uJpm4n0Ei-6XNWIfcuvK-139">
                    <mxGeometry y="52" width="180" height="8" as="geometry"/>
                </mxCell>
                <mxCell id="uJpm4n0Ei-6XNWIfcuvK-142" value="+ constructor(confInput: Object)" style="text;strokeColor=none;fillColor=none;align=left;verticalAlign=top;spacingLeft=4;spacingRight=4;overflow=hidden;rotatable=0;points=[[0,0.5],[1,0.5]];portConstraint=eastwest;" vertex="1" parent="uJpm4n0Ei-6XNWIfcuvK-139">
                    <mxGeometry y="60" width="180" height="26" as="geometry"/>
                </mxCell>
                <mxCell id="uJpm4n0Ei-6XNWIfcuvK-143" style="edgeStyle=orthogonalEdgeStyle;html=1;endArrow=block;endFill=1;startSize=6;endSize=12;exitX=0.5;exitY=0;exitDx=0;exitDy=0;" edge="1" parent="1" source="uJpm4n0Ei-6XNWIfcuvK-148" target="uJpm4n0Ei-6XNWIfcuvK-161">
                    <mxGeometry relative="1" as="geometry">
                        <mxPoint x="-870" y="1000" as="sourcePoint"/>
                        <Array as="points">
                            <mxPoint x="-765" y="858"/>
                        </Array>
                    </mxGeometry>
                </mxCell>
                <mxCell id="uJpm4n0Ei-6XNWIfcuvK-144" value="Text" style="swimlane;fontStyle=1;align=center;verticalAlign=top;childLayout=stackLayout;horizontal=1;startSize=26;horizontalStack=0;resizeParent=1;resizeParentMax=0;resizeLast=0;collapsible=1;marginBottom=0;fillColor=#1ba1e2;fontColor=#ffffff;strokeColor=#006EAF;" vertex="1" parent="1">
                    <mxGeometry x="-1530" y="1020" width="180" height="86" as="geometry"/>
                </mxCell>
                <mxCell id="uJpm4n0Ei-6XNWIfcuvK-145" value="+ type: String" style="text;strokeColor=none;fillColor=none;align=left;verticalAlign=top;spacingLeft=4;spacingRight=4;overflow=hidden;rotatable=0;points=[[0,0.5],[1,0.5]];portConstraint=eastwest;" vertex="1" parent="uJpm4n0Ei-6XNWIfcuvK-144">
                    <mxGeometry y="26" width="180" height="26" as="geometry"/>
                </mxCell>
                <mxCell id="uJpm4n0Ei-6XNWIfcuvK-146" value="" style="line;strokeWidth=1;fillColor=none;align=left;verticalAlign=middle;spacingTop=-1;spacingLeft=3;spacingRight=3;rotatable=0;labelPosition=right;points=[];portConstraint=eastwest;" vertex="1" parent="uJpm4n0Ei-6XNWIfcuvK-144">
                    <mxGeometry y="52" width="180" height="8" as="geometry"/>
                </mxCell>
                <mxCell id="uJpm4n0Ei-6XNWIfcuvK-147" value="+ constructor(confInput: Object)" style="text;strokeColor=none;fillColor=none;align=left;verticalAlign=top;spacingLeft=4;spacingRight=4;overflow=hidden;rotatable=0;points=[[0,0.5],[1,0.5]];portConstraint=eastwest;" vertex="1" parent="uJpm4n0Ei-6XNWIfcuvK-144">
                    <mxGeometry y="60" width="180" height="26" as="geometry"/>
                </mxCell>
                <mxCell id="uJpm4n0Ei-6XNWIfcuvK-148" value="Select" style="swimlane;fontStyle=1;align=center;verticalAlign=top;childLayout=stackLayout;horizontal=1;startSize=26;horizontalStack=0;resizeParent=1;resizeParentMax=0;resizeLast=0;collapsible=1;marginBottom=0;fillColor=#1ba1e2;fontColor=#ffffff;strokeColor=#006EAF;" vertex="1" parent="1">
                    <mxGeometry x="-960" y="1020" width="390" height="140" as="geometry"/>
                </mxCell>
                <mxCell id="uJpm4n0Ei-6XNWIfcuvK-149" value="+ type: String" style="text;strokeColor=none;fillColor=none;align=left;verticalAlign=top;spacingLeft=4;spacingRight=4;overflow=hidden;rotatable=0;points=[[0,0.5],[1,0.5]];portConstraint=eastwest;" vertex="1" parent="uJpm4n0Ei-6XNWIfcuvK-148">
                    <mxGeometry y="26" width="390" height="26" as="geometry"/>
                </mxCell>
                <mxCell id="uJpm4n0Ei-6XNWIfcuvK-150" value="" style="line;strokeWidth=1;fillColor=none;align=left;verticalAlign=middle;spacingTop=-1;spacingLeft=3;spacingRight=3;rotatable=0;labelPosition=right;points=[];portConstraint=eastwest;" vertex="1" parent="uJpm4n0Ei-6XNWIfcuvK-148">
                    <mxGeometry y="52" width="390" height="8" as="geometry"/>
                </mxCell>
                <mxCell id="uJpm4n0Ei-6XNWIfcuvK-151" value="+ constructor(confInput: Object)&#10;+ getInput(): String&#10;+ getLabel(): String&#10;+ getOptions(): String&#10;+ getCollectionOption(collection_name: String, attributes: String): String" style="text;strokeColor=none;fillColor=none;align=left;verticalAlign=top;spacingLeft=4;spacingRight=4;overflow=hidden;rotatable=0;points=[[0,0.5],[1,0.5]];portConstraint=eastwest;" vertex="1" parent="uJpm4n0Ei-6XNWIfcuvK-148">
                    <mxGeometry y="60" width="390" height="80" as="geometry"/>
                </mxCell>
                <mxCell id="uJpm4n0Ei-6XNWIfcuvK-152" style="edgeStyle=orthogonalEdgeStyle;html=1;endArrow=classic;endFill=1;startSize=6;endSize=6;" edge="1" parent="1" source="uJpm4n0Ei-6XNWIfcuvK-157" target="uJpm4n0Ei-6XNWIfcuvK-148">
                    <mxGeometry relative="1" as="geometry">
                        <Array as="points">
                            <mxPoint x="-765" y="1273"/>
                        </Array>
                    </mxGeometry>
                </mxCell>
                <mxCell id="uJpm4n0Ei-6XNWIfcuvK-153" style="edgeStyle=orthogonalEdgeStyle;html=1;endArrow=classic;endFill=1;startSize=6;endSize=6;" edge="1" parent="1" source="uJpm4n0Ei-6XNWIfcuvK-157" target="uJpm4n0Ei-6XNWIfcuvK-139">
                    <mxGeometry relative="1" as="geometry"/>
                </mxCell>
                <mxCell id="uJpm4n0Ei-6XNWIfcuvK-154" style="edgeStyle=orthogonalEdgeStyle;html=1;endArrow=classic;endFill=1;startSize=6;endSize=6;" edge="1" parent="1" source="uJpm4n0Ei-6XNWIfcuvK-157" target="uJpm4n0Ei-6XNWIfcuvK-134">
                    <mxGeometry relative="1" as="geometry"/>
                </mxCell>
                <mxCell id="uJpm4n0Ei-6XNWIfcuvK-155" style="edgeStyle=orthogonalEdgeStyle;html=1;endArrow=classic;endFill=1;startSize=6;endSize=6;" edge="1" parent="1" source="uJpm4n0Ei-6XNWIfcuvK-157" target="uJpm4n0Ei-6XNWIfcuvK-144">
                    <mxGeometry relative="1" as="geometry"/>
                </mxCell>
                <mxCell id="uJpm4n0Ei-6XNWIfcuvK-156" style="edgeStyle=orthogonalEdgeStyle;html=1;endArrow=classic;endFill=1;startSize=6;endSize=6;" edge="1" parent="1" source="uJpm4n0Ei-6XNWIfcuvK-157" target="uJpm4n0Ei-6XNWIfcuvK-166">
                    <mxGeometry relative="1" as="geometry"/>
                </mxCell>
                <mxCell id="uJpm4n0Ei-6XNWIfcuvK-157" value="FieldFactory" style="swimlane;fontStyle=1;align=center;verticalAlign=top;childLayout=stackLayout;horizontal=1;startSize=26;horizontalStack=0;resizeParent=1;resizeParentMax=0;resizeLast=0;collapsible=1;marginBottom=0;fillColor=#1ba1e2;fontColor=#ffffff;strokeColor=#006EAF;" vertex="1" parent="1">
                    <mxGeometry x="-580" y="1230" width="170" height="86" as="geometry"/>
                </mxCell>
                <mxCell id="uJpm4n0Ei-6XNWIfcuvK-158" value="+ " style="text;strokeColor=none;fillColor=none;align=left;verticalAlign=top;spacingLeft=4;spacingRight=4;overflow=hidden;rotatable=0;points=[[0,0.5],[1,0.5]];portConstraint=eastwest;" vertex="1" parent="uJpm4n0Ei-6XNWIfcuvK-157">
                    <mxGeometry y="26" width="170" height="26" as="geometry"/>
                </mxCell>
                <mxCell id="uJpm4n0Ei-6XNWIfcuvK-159" value="" style="line;strokeWidth=1;fillColor=none;align=left;verticalAlign=middle;spacingTop=-1;spacingLeft=3;spacingRight=3;rotatable=0;labelPosition=right;points=[];portConstraint=eastwest;" vertex="1" parent="uJpm4n0Ei-6XNWIfcuvK-157">
                    <mxGeometry y="52" width="170" height="8" as="geometry"/>
                </mxCell>
                <mxCell id="uJpm4n0Ei-6XNWIfcuvK-160" value="+ getField(field: Object): Field" style="text;strokeColor=none;fillColor=none;align=left;verticalAlign=top;spacingLeft=4;spacingRight=4;overflow=hidden;rotatable=0;points=[[0,0.5],[1,0.5]];portConstraint=eastwest;" vertex="1" parent="uJpm4n0Ei-6XNWIfcuvK-157">
                    <mxGeometry y="60" width="170" height="26" as="geometry"/>
                </mxCell>
                <mxCell id="uJpm4n0Ei-6XNWIfcuvK-161" value="Field" style="swimlane;fontStyle=1;align=center;verticalAlign=top;childLayout=stackLayout;horizontal=1;startSize=26;horizontalStack=0;resizeParent=1;resizeParentMax=0;resizeLast=0;collapsible=1;marginBottom=0;fillColor=#1ba1e2;fontColor=#ffffff;strokeColor=#006EAF;" vertex="1" parent="1">
                    <mxGeometry x="-1392.5" y="680" width="285" height="250" as="geometry"/>
                </mxCell>
                <mxCell id="uJpm4n0Ei-6XNWIfcuvK-162" value="formName: String&#10;id: String&#10;label: String&#10;name: String&#10;type: String&#10;value: String&#10;config: Object&#10;cols: String" style="text;strokeColor=none;fillColor=none;align=left;verticalAlign=top;spacingLeft=4;spacingRight=4;overflow=hidden;rotatable=0;points=[[0,0.5],[1,0.5]];portConstraint=eastwest;" vertex="1" parent="uJpm4n0Ei-6XNWIfcuvK-161">
                    <mxGeometry y="26" width="285" height="124" as="geometry"/>
                </mxCell>
                <mxCell id="uJpm4n0Ei-6XNWIfcuvK-163" value="" style="line;strokeWidth=1;fillColor=none;align=left;verticalAlign=middle;spacingTop=-1;spacingLeft=3;spacingRight=3;rotatable=0;labelPosition=right;points=[];portConstraint=eastwest;" vertex="1" parent="uJpm4n0Ei-6XNWIfcuvK-161">
                    <mxGeometry y="150" width="285" height="8" as="geometry"/>
                </mxCell>
                <mxCell id="uJpm4n0Ei-6XNWIfcuvK-164" value="+ constructor(confInput: Object)&#10;+ setValue(value): void&#10;+ getInput(): String&#10;+ getLabel(): String&#10;+ dsp(): String&#10;+ getCollectionData(collection_name: String): Array" style="text;strokeColor=none;fillColor=none;align=left;verticalAlign=top;spacingLeft=4;spacingRight=4;overflow=hidden;rotatable=0;points=[[0,0.5],[1,0.5]];portConstraint=eastwest;" vertex="1" parent="uJpm4n0Ei-6XNWIfcuvK-161">
                    <mxGeometry y="158" width="285" height="92" as="geometry"/>
                </mxCell>
                <mxCell id="uJpm4n0Ei-6XNWIfcuvK-165" style="edgeStyle=orthogonalEdgeStyle;html=1;endArrow=block;endFill=1;startSize=6;endSize=12;" edge="1" parent="1" source="uJpm4n0Ei-6XNWIfcuvK-166" target="uJpm4n0Ei-6XNWIfcuvK-161">
                    <mxGeometry relative="1" as="geometry">
                        <Array as="points">
                            <mxPoint x="-1645" y="858"/>
                        </Array>
                    </mxGeometry>
                </mxCell>
                <mxCell id="uJpm4n0Ei-6XNWIfcuvK-166" value="Password" style="swimlane;fontStyle=1;align=center;verticalAlign=top;childLayout=stackLayout;horizontal=1;startSize=26;horizontalStack=0;resizeParent=1;resizeParentMax=0;resizeLast=0;collapsible=1;marginBottom=0;fillColor=#1ba1e2;fontColor=#ffffff;strokeColor=#006EAF;" vertex="1" parent="1">
                    <mxGeometry x="-1720" y="1020" width="180" height="86" as="geometry"/>
                </mxCell>
                <mxCell id="uJpm4n0Ei-6XNWIfcuvK-167" value="+ type: String" style="text;align=left;verticalAlign=top;spacingLeft=4;spacingRight=4;overflow=hidden;rotatable=0;points=[[0,0.5],[1,0.5]];portConstraint=eastwest;" vertex="1" parent="uJpm4n0Ei-6XNWIfcuvK-166">
                    <mxGeometry y="26" width="180" height="26" as="geometry"/>
                </mxCell>
                <mxCell id="uJpm4n0Ei-6XNWIfcuvK-168" value="" style="line;strokeWidth=1;fillColor=none;align=left;verticalAlign=middle;spacingTop=-1;spacingLeft=3;spacingRight=3;rotatable=0;labelPosition=right;points=[];portConstraint=eastwest;" vertex="1" parent="uJpm4n0Ei-6XNWIfcuvK-166">
                    <mxGeometry y="52" width="180" height="8" as="geometry"/>
                </mxCell>
                <mxCell id="uJpm4n0Ei-6XNWIfcuvK-169" value="+ constructor(confInput: Object)" style="text;strokeColor=none;fillColor=none;align=left;verticalAlign=top;spacingLeft=4;spacingRight=4;overflow=hidden;rotatable=0;points=[[0,0.5],[1,0.5]];portConstraint=eastwest;" vertex="1" parent="uJpm4n0Ei-6XNWIfcuvK-166">
                    <mxGeometry y="60" width="180" height="26" as="geometry"/>
                </mxCell>
                <mxCell id="uJpm4n0Ei-6XNWIfcuvK-170" style="edgeStyle=orthogonalEdgeStyle;html=1;endArrow=block;endFill=1;startSize=6;endSize=12;exitX=0.5;exitY=0;exitDx=0;exitDy=0;" edge="1" parent="1" source="uJpm4n0Ei-6XNWIfcuvK-144" target="uJpm4n0Ei-6XNWIfcuvK-161">
                    <mxGeometry relative="1" as="geometry">
                        <mxPoint x="-1475" y="1000" as="sourcePoint"/>
                        <mxPoint x="-1325" y="640.9999999999995" as="targetPoint"/>
                        <Array as="points">
                            <mxPoint x="-1440" y="878"/>
                        </Array>
                    </mxGeometry>
                </mxCell>
                <mxCell id="ueKgROSvyOMEfXGONKWb-128" value="DynamicModel" style="swimlane;fontStyle=1;align=center;verticalAlign=top;childLayout=stackLayout;horizontal=1;startSize=26;horizontalStack=0;resizeParent=1;resizeParentMax=0;resizeLast=0;collapsible=1;marginBottom=0;fillColor=#a20025;fontColor=#ffffff;strokeColor=#6F0000;" vertex="1" parent="1">
                    <mxGeometry x="-800" y="360" width="160" height="150" as="geometry"/>
                </mxCell>
                <mxCell id="ueKgROSvyOMEfXGONKWb-129" value="+ field: type" style="text;strokeColor=none;fillColor=none;align=left;verticalAlign=top;spacingLeft=4;spacingRight=4;overflow=hidden;rotatable=0;points=[[0,0.5],[1,0.5]];portConstraint=eastwest;" vertex="1" parent="ueKgROSvyOMEfXGONKWb-128">
                    <mxGeometry y="26" width="160" height="26" as="geometry"/>
                </mxCell>
                <mxCell id="ueKgROSvyOMEfXGONKWb-130" value="" style="line;strokeWidth=1;fillColor=none;align=left;verticalAlign=middle;spacingTop=-1;spacingLeft=3;spacingRight=3;rotatable=0;labelPosition=right;points=[];portConstraint=eastwest;" vertex="1" parent="ueKgROSvyOMEfXGONKWb-128">
                    <mxGeometry y="52" width="160" height="8" as="geometry"/>
                </mxCell>
                <mxCell id="ueKgROSvyOMEfXGONKWb-131" value="+ find({})&#10;+ findById(id)&#10;+ findByIdAndDelete(id)&#10;+ findByIdAndUpdate(id, {})&#10;+ save()&#10;" style="text;strokeColor=none;fillColor=none;align=left;verticalAlign=top;spacingLeft=4;spacingRight=4;overflow=hidden;rotatable=0;points=[[0,0.5],[1,0.5]];portConstraint=eastwest;fontStyle=0" vertex="1" parent="ueKgROSvyOMEfXGONKWb-128">
                    <mxGeometry y="60" width="160" height="90" as="geometry"/>
                </mxCell>
            </root>
        </mxGraphModel>
    </diagram>
    <diagram name="Class Diagram - Routers" id="VtMRGZ5THdw_kcHnz3Y1">
        <mxGraphModel dx="2446" dy="1708" grid="1" gridSize="10" guides="1" tooltips="1" connect="1" arrows="1" fold="1" page="1" pageScale="1" pageWidth="827" pageHeight="1169" math="0" shadow="0">
            <root>
                <mxCell id="ObLxaBhGWvZHIA5DmIsv-0"/>
                <mxCell id="ObLxaBhGWvZHIA5DmIsv-1" parent="ObLxaBhGWvZHIA5DmIsv-0"/>
                <mxCell id="ObLxaBhGWvZHIA5DmIsv-2" style="html=1;" edge="1" parent="ObLxaBhGWvZHIA5DmIsv-1" source="ObLxaBhGWvZHIA5DmIsv-65" target="ObLxaBhGWvZHIA5DmIsv-92">
                    <mxGeometry relative="1" as="geometry"/>
                </mxCell>
                <mxCell id="ObLxaBhGWvZHIA5DmIsv-3" style="edgeStyle=none;html=1;" edge="1" parent="ObLxaBhGWvZHIA5DmIsv-1" source="ObLxaBhGWvZHIA5DmIsv-65" target="ObLxaBhGWvZHIA5DmIsv-21">
                    <mxGeometry relative="1" as="geometry"/>
                </mxCell>
                <mxCell id="ObLxaBhGWvZHIA5DmIsv-4" style="edgeStyle=none;html=1;startArrow=none;" edge="1" parent="ObLxaBhGWvZHIA5DmIsv-1" source="ObLxaBhGWvZHIA5DmIsv-77" target="ObLxaBhGWvZHIA5DmIsv-29">
                    <mxGeometry relative="1" as="geometry"/>
                </mxCell>
                <mxCell id="ObLxaBhGWvZHIA5DmIsv-5" style="edgeStyle=orthogonalEdgeStyle;html=1;" edge="1" parent="ObLxaBhGWvZHIA5DmIsv-1" source="ObLxaBhGWvZHIA5DmIsv-83" target="ObLxaBhGWvZHIA5DmIsv-34">
                    <mxGeometry relative="1" as="geometry">
                        <mxPoint x="-415.625" y="180" as="sourcePoint"/>
                    </mxGeometry>
                </mxCell>
                <mxCell id="ObLxaBhGWvZHIA5DmIsv-6" style="edgeStyle=none;html=1;" edge="1" parent="ObLxaBhGWvZHIA5DmIsv-1" source="ObLxaBhGWvZHIA5DmIsv-89" target="ObLxaBhGWvZHIA5DmIsv-51">
                    <mxGeometry relative="1" as="geometry">
                        <mxPoint x="-380" y="141" as="sourcePoint"/>
                    </mxGeometry>
                </mxCell>
                <mxCell id="ObLxaBhGWvZHIA5DmIsv-8" style="edgeStyle=orthogonalEdgeStyle;html=1;" edge="1" parent="ObLxaBhGWvZHIA5DmIsv-1" source="ObLxaBhGWvZHIA5DmIsv-98" target="ObLxaBhGWvZHIA5DmIsv-61">
                    <mxGeometry relative="1" as="geometry"/>
                </mxCell>
                <mxCell id="ObLxaBhGWvZHIA5DmIsv-12" value="UserController" style="swimlane;fontStyle=1;align=center;verticalAlign=top;childLayout=stackLayout;horizontal=1;startSize=26;horizontalStack=0;resizeParent=1;resizeParentMax=0;resizeLast=0;collapsible=1;marginBottom=0;fillColor=#f0a30a;fontColor=#000000;strokeColor=#BD7000;" vertex="1" parent="ObLxaBhGWvZHIA5DmIsv-1">
                    <mxGeometry x="-370" y="-345" width="160" height="160" as="geometry">
                        <mxRectangle x="-450" y="50" width="120" height="26" as="alternateBounds"/>
                    </mxGeometry>
                </mxCell>
                <mxCell id="ObLxaBhGWvZHIA5DmIsv-13" value="+ field: type" style="text;strokeColor=none;fillColor=none;align=left;verticalAlign=top;spacingLeft=4;spacingRight=4;overflow=hidden;rotatable=0;points=[[0,0.5],[1,0.5]];portConstraint=eastwest;" vertex="1" parent="ObLxaBhGWvZHIA5DmIsv-12">
                    <mxGeometry y="26" width="160" height="26" as="geometry"/>
                </mxCell>
                <mxCell id="ObLxaBhGWvZHIA5DmIsv-14" value="" style="line;strokeWidth=1;fillColor=none;align=left;verticalAlign=middle;spacingTop=-1;spacingLeft=3;spacingRight=3;rotatable=0;labelPosition=right;points=[];portConstraint=eastwest;" vertex="1" parent="ObLxaBhGWvZHIA5DmIsv-12">
                    <mxGeometry y="52" width="160" height="8" as="geometry"/>
                </mxCell>
                <object label="+ index(req, res)&#10;+ create(req, res)&#10;+ store(req, res)&#10;+ edit(req, res)&#10;+ update(req, res)&#10;+ destroy(req, res)" id="ObLxaBhGWvZHIA5DmIsv-15">
                    <mxCell style="text;strokeColor=none;fillColor=none;align=left;verticalAlign=top;spacingLeft=4;spacingRight=4;overflow=hidden;rotatable=0;points=[[0,0.5],[1,0.5]];portConstraint=eastwest;" vertex="1" parent="ObLxaBhGWvZHIA5DmIsv-12">
                        <mxGeometry y="60" width="160" height="100" as="geometry"/>
                    </mxCell>
                </object>
                <mxCell id="ObLxaBhGWvZHIA5DmIsv-16" value="CoreUsersModel" style="swimlane;fontStyle=1;align=center;verticalAlign=top;childLayout=stackLayout;horizontal=1;startSize=26;horizontalStack=0;resizeParent=1;resizeParentMax=0;resizeLast=0;collapsible=1;marginBottom=0;fillColor=#a20025;fontColor=#ffffff;strokeColor=#6F0000;" vertex="1" parent="ObLxaBhGWvZHIA5DmIsv-1">
                    <mxGeometry x="-650" y="-340" width="160" height="150" as="geometry"/>
                </mxCell>
                <mxCell id="ObLxaBhGWvZHIA5DmIsv-17" value="+ field: type" style="text;strokeColor=none;fillColor=none;align=left;verticalAlign=top;spacingLeft=4;spacingRight=4;overflow=hidden;rotatable=0;points=[[0,0.5],[1,0.5]];portConstraint=eastwest;" vertex="1" parent="ObLxaBhGWvZHIA5DmIsv-16">
                    <mxGeometry y="26" width="160" height="26" as="geometry"/>
                </mxCell>
                <mxCell id="ObLxaBhGWvZHIA5DmIsv-18" value="" style="line;strokeWidth=1;fillColor=none;align=left;verticalAlign=middle;spacingTop=-1;spacingLeft=3;spacingRight=3;rotatable=0;labelPosition=right;points=[];portConstraint=eastwest;" vertex="1" parent="ObLxaBhGWvZHIA5DmIsv-16">
                    <mxGeometry y="52" width="160" height="8" as="geometry"/>
                </mxCell>
                <mxCell id="ObLxaBhGWvZHIA5DmIsv-19" value="+ find({})&#10;+ findById(id)&#10;+ findByIdAndDelete(id)&#10;+ findByIdAndUpdate(id, {})&#10;+ save()&#10;" style="text;strokeColor=none;fillColor=none;align=left;verticalAlign=top;spacingLeft=4;spacingRight=4;overflow=hidden;rotatable=0;points=[[0,0.5],[1,0.5]];portConstraint=eastwest;fontStyle=0" vertex="1" parent="ObLxaBhGWvZHIA5DmIsv-16">
                    <mxGeometry y="60" width="160" height="90" as="geometry"/>
                </mxCell>
                <mxCell id="ObLxaBhGWvZHIA5DmIsv-20" style="edgeStyle=orthogonalEdgeStyle;html=1;" edge="1" parent="ObLxaBhGWvZHIA5DmIsv-1" source="ObLxaBhGWvZHIA5DmIsv-12" target="ObLxaBhGWvZHIA5DmIsv-16">
                    <mxGeometry relative="1" as="geometry"/>
                </mxCell>
                <mxCell id="ObLxaBhGWvZHIA5DmIsv-21" value="AuthMiddleware" style="swimlane;fontStyle=1;align=center;verticalAlign=top;childLayout=stackLayout;horizontal=1;startSize=26;horizontalStack=0;resizeParent=1;resizeParentMax=0;resizeLast=0;collapsible=1;marginBottom=0;fillColor=#6a00ff;fontColor=#ffffff;strokeColor=#3700CC;" vertex="1" parent="ObLxaBhGWvZHIA5DmIsv-1">
                    <mxGeometry x="-910" y="170" width="180" height="100" as="geometry"/>
                </mxCell>
                <mxCell id="ObLxaBhGWvZHIA5DmIsv-22" value="+ field: type" style="text;strokeColor=none;fillColor=none;align=left;verticalAlign=top;spacingLeft=4;spacingRight=4;overflow=hidden;rotatable=0;points=[[0,0.5],[1,0.5]];portConstraint=eastwest;" vertex="1" parent="ObLxaBhGWvZHIA5DmIsv-21">
                    <mxGeometry y="26" width="180" height="26" as="geometry"/>
                </mxCell>
                <mxCell id="ObLxaBhGWvZHIA5DmIsv-23" value="" style="line;strokeWidth=1;fillColor=none;align=left;verticalAlign=middle;spacingTop=-1;spacingLeft=3;spacingRight=3;rotatable=0;labelPosition=right;points=[];portConstraint=eastwest;" vertex="1" parent="ObLxaBhGWvZHIA5DmIsv-21">
                    <mxGeometry y="52" width="180" height="8" as="geometry"/>
                </mxCell>
                <mxCell id="ObLxaBhGWvZHIA5DmIsv-24" value="+ checkJWT(req, res, next)&#10;+ checkSession(req, res, next)" style="text;strokeColor=none;fillColor=none;align=left;verticalAlign=top;spacingLeft=4;spacingRight=4;overflow=hidden;rotatable=0;points=[[0,0.5],[1,0.5]];portConstraint=eastwest;" vertex="1" parent="ObLxaBhGWvZHIA5DmIsv-21">
                    <mxGeometry y="60" width="180" height="40" as="geometry"/>
                </mxCell>
                <mxCell id="ObLxaBhGWvZHIA5DmIsv-25" value="CoreCollectionsModel" style="swimlane;fontStyle=1;align=center;verticalAlign=top;childLayout=stackLayout;horizontal=1;startSize=26;horizontalStack=0;resizeParent=1;resizeParentMax=0;resizeLast=0;collapsible=1;marginBottom=0;fillColor=#a20025;fontColor=#ffffff;strokeColor=#6F0000;" vertex="1" parent="ObLxaBhGWvZHIA5DmIsv-1">
                    <mxGeometry x="-90" y="680" width="160" height="150" as="geometry"/>
                </mxCell>
                <mxCell id="ObLxaBhGWvZHIA5DmIsv-26" value="+ field: type" style="text;strokeColor=none;fillColor=none;align=left;verticalAlign=top;spacingLeft=4;spacingRight=4;overflow=hidden;rotatable=0;points=[[0,0.5],[1,0.5]];portConstraint=eastwest;" vertex="1" parent="ObLxaBhGWvZHIA5DmIsv-25">
                    <mxGeometry y="26" width="160" height="26" as="geometry"/>
                </mxCell>
                <mxCell id="ObLxaBhGWvZHIA5DmIsv-27" value="" style="line;strokeWidth=1;fillColor=none;align=left;verticalAlign=middle;spacingTop=-1;spacingLeft=3;spacingRight=3;rotatable=0;labelPosition=right;points=[];portConstraint=eastwest;" vertex="1" parent="ObLxaBhGWvZHIA5DmIsv-25">
                    <mxGeometry y="52" width="160" height="8" as="geometry"/>
                </mxCell>
                <mxCell id="ObLxaBhGWvZHIA5DmIsv-28" value="+ find({})&#10;+ findById(id)&#10;+ findByIdAndDelete(id)&#10;+ findByIdAndUpdate(id, {})&#10;+ save()&#10;" style="text;strokeColor=none;fillColor=none;align=left;verticalAlign=top;spacingLeft=4;spacingRight=4;overflow=hidden;rotatable=0;points=[[0,0.5],[1,0.5]];portConstraint=eastwest;fontStyle=0" vertex="1" parent="ObLxaBhGWvZHIA5DmIsv-25">
                    <mxGeometry y="60" width="160" height="90" as="geometry"/>
                </mxCell>
                <mxCell id="ObLxaBhGWvZHIA5DmIsv-29" value="AuthController" style="swimlane;fontStyle=1;align=center;verticalAlign=top;childLayout=stackLayout;horizontal=1;startSize=26;horizontalStack=0;resizeParent=1;resizeParentMax=0;resizeLast=0;collapsible=1;marginBottom=0;fillColor=#f0a30a;fontColor=#000000;strokeColor=#BD7000;" vertex="1" parent="ObLxaBhGWvZHIA5DmIsv-1">
                    <mxGeometry x="-900" y="-330" width="160" height="130" as="geometry"/>
                </mxCell>
                <mxCell id="ObLxaBhGWvZHIA5DmIsv-30" value="+ field: type" style="text;strokeColor=none;fillColor=none;align=left;verticalAlign=top;spacingLeft=4;spacingRight=4;overflow=hidden;rotatable=0;points=[[0,0.5],[1,0.5]];portConstraint=eastwest;" vertex="1" parent="ObLxaBhGWvZHIA5DmIsv-29">
                    <mxGeometry y="26" width="160" height="26" as="geometry"/>
                </mxCell>
                <mxCell id="ObLxaBhGWvZHIA5DmIsv-31" value="" style="line;strokeWidth=1;fillColor=none;align=left;verticalAlign=middle;spacingTop=-1;spacingLeft=3;spacingRight=3;rotatable=0;labelPosition=right;points=[];portConstraint=eastwest;" vertex="1" parent="ObLxaBhGWvZHIA5DmIsv-29">
                    <mxGeometry y="52" width="160" height="8" as="geometry"/>
                </mxCell>
                <mxCell id="ObLxaBhGWvZHIA5DmIsv-32" value="+ getJWT(req, res)&#10;+ login(req, res)&#10;+ loginProcess(req, res)&#10;+ logout(req, res)" style="text;strokeColor=none;fillColor=none;align=left;verticalAlign=top;spacingLeft=4;spacingRight=4;overflow=hidden;rotatable=0;points=[[0,0.5],[1,0.5]];portConstraint=eastwest;" vertex="1" parent="ObLxaBhGWvZHIA5DmIsv-29">
                    <mxGeometry y="60" width="160" height="70" as="geometry"/>
                </mxCell>
                <mxCell id="ObLxaBhGWvZHIA5DmIsv-33" style="edgeStyle=orthogonalEdgeStyle;html=1;" edge="1" parent="ObLxaBhGWvZHIA5DmIsv-1" source="ObLxaBhGWvZHIA5DmIsv-34" target="ObLxaBhGWvZHIA5DmIsv-25">
                    <mxGeometry relative="1" as="geometry">
                        <Array as="points">
                            <mxPoint x="-30" y="325"/>
                        </Array>
                    </mxGeometry>
                </mxCell>
                <mxCell id="ObLxaBhGWvZHIA5DmIsv-34" value="CollectionsController" style="swimlane;fontStyle=1;align=center;verticalAlign=top;childLayout=stackLayout;horizontal=1;startSize=26;horizontalStack=0;resizeParent=1;resizeParentMax=0;resizeLast=0;collapsible=1;marginBottom=0;fillColor=#f0a30a;fontColor=#000000;strokeColor=#BD7000;" vertex="1" parent="ObLxaBhGWvZHIA5DmIsv-1">
                    <mxGeometry x="-260" y="240" width="160" height="160" as="geometry">
                        <mxRectangle x="-450" y="50" width="120" height="26" as="alternateBounds"/>
                    </mxGeometry>
                </mxCell>
                <mxCell id="ObLxaBhGWvZHIA5DmIsv-35" value="+ field: type" style="text;strokeColor=none;fillColor=none;align=left;verticalAlign=top;spacingLeft=4;spacingRight=4;overflow=hidden;rotatable=0;points=[[0,0.5],[1,0.5]];portConstraint=eastwest;" vertex="1" parent="ObLxaBhGWvZHIA5DmIsv-34">
                    <mxGeometry y="26" width="160" height="26" as="geometry"/>
                </mxCell>
                <mxCell id="ObLxaBhGWvZHIA5DmIsv-36" value="" style="line;strokeWidth=1;fillColor=none;align=left;verticalAlign=middle;spacingTop=-1;spacingLeft=3;spacingRight=3;rotatable=0;labelPosition=right;points=[];portConstraint=eastwest;" vertex="1" parent="ObLxaBhGWvZHIA5DmIsv-34">
                    <mxGeometry y="52" width="160" height="8" as="geometry"/>
                </mxCell>
                <object label="+ index(req, res)&#10;+ create(req, res)&#10;+ store(req, res)&#10;+ edit(req, res)&#10;+ update(req, res)&#10;+ destroy(req, res)" id="ObLxaBhGWvZHIA5DmIsv-37">
                    <mxCell style="text;strokeColor=none;fillColor=none;align=left;verticalAlign=top;spacingLeft=4;spacingRight=4;overflow=hidden;rotatable=0;points=[[0,0.5],[1,0.5]];portConstraint=eastwest;" vertex="1" parent="ObLxaBhGWvZHIA5DmIsv-34">
                        <mxGeometry y="60" width="160" height="100" as="geometry"/>
                    </mxCell>
                </object>
                <mxCell id="ObLxaBhGWvZHIA5DmIsv-38" style="edgeStyle=orthogonalEdgeStyle;html=1;" edge="1" parent="ObLxaBhGWvZHIA5DmIsv-1" source="ObLxaBhGWvZHIA5DmIsv-39" target="ObLxaBhGWvZHIA5DmIsv-25">
                    <mxGeometry relative="1" as="geometry"/>
                </mxCell>
                <mxCell id="ObLxaBhGWvZHIA5DmIsv-39" value="DynamicResources" style="swimlane;fontStyle=1;align=center;verticalAlign=top;childLayout=stackLayout;horizontal=1;startSize=26;horizontalStack=0;resizeParent=1;resizeParentMax=0;resizeLast=0;collapsible=1;marginBottom=0;fillColor=#fa6800;strokeColor=#C73500;fontColor=#000000;" vertex="1" parent="ObLxaBhGWvZHIA5DmIsv-1">
                    <mxGeometry x="-870" y="690" width="230" height="130" as="geometry"/>
                </mxCell>
                <mxCell id="ObLxaBhGWvZHIA5DmIsv-40" value="+ field: type" style="text;strokeColor=none;fillColor=none;align=left;verticalAlign=top;spacingLeft=4;spacingRight=4;overflow=hidden;rotatable=0;points=[[0,0.5],[1,0.5]];portConstraint=eastwest;" vertex="1" parent="ObLxaBhGWvZHIA5DmIsv-39">
                    <mxGeometry y="26" width="230" height="26" as="geometry"/>
                </mxCell>
                <mxCell id="ObLxaBhGWvZHIA5DmIsv-41" value="" style="line;strokeWidth=1;fillColor=none;align=left;verticalAlign=middle;spacingTop=-1;spacingLeft=3;spacingRight=3;rotatable=0;labelPosition=right;points=[];portConstraint=eastwest;" vertex="1" parent="ObLxaBhGWvZHIA5DmIsv-39">
                    <mxGeometry y="52" width="230" height="8" as="geometry"/>
                </mxCell>
                <mxCell id="ObLxaBhGWvZHIA5DmIsv-42" value="+ getObjectsAndModel(pathName, req)&#10;+ getDynamicModel(objCrud)&#10;+ getSchema(objCrud)&#10;+ deleteDynamicModel(objCrud)" style="text;strokeColor=none;fillColor=none;align=left;verticalAlign=top;spacingLeft=4;spacingRight=4;overflow=hidden;rotatable=0;points=[[0,0.5],[1,0.5]];portConstraint=eastwest;" vertex="1" parent="ObLxaBhGWvZHIA5DmIsv-39">
                    <mxGeometry y="60" width="230" height="70" as="geometry"/>
                </mxCell>
                <mxCell id="ObLxaBhGWvZHIA5DmIsv-43" value="FieldsConfigController" style="swimlane;fontStyle=1;align=center;verticalAlign=top;childLayout=stackLayout;horizontal=1;startSize=26;horizontalStack=0;resizeParent=1;resizeParentMax=0;resizeLast=0;collapsible=1;marginBottom=0;fillColor=#f0a30a;fontColor=#000000;strokeColor=#BD7000;" vertex="1" parent="ObLxaBhGWvZHIA5DmIsv-1">
                    <mxGeometry x="-413" y="470" width="160" height="100" as="geometry">
                        <mxRectangle x="-450" y="50" width="120" height="26" as="alternateBounds"/>
                    </mxGeometry>
                </mxCell>
                <mxCell id="ObLxaBhGWvZHIA5DmIsv-44" value="+ field: type" style="text;strokeColor=none;fillColor=none;align=left;verticalAlign=top;spacingLeft=4;spacingRight=4;overflow=hidden;rotatable=0;points=[[0,0.5],[1,0.5]];portConstraint=eastwest;" vertex="1" parent="ObLxaBhGWvZHIA5DmIsv-43">
                    <mxGeometry y="26" width="160" height="26" as="geometry"/>
                </mxCell>
                <mxCell id="ObLxaBhGWvZHIA5DmIsv-45" value="" style="line;strokeWidth=1;fillColor=none;align=left;verticalAlign=middle;spacingTop=-1;spacingLeft=3;spacingRight=3;rotatable=0;labelPosition=right;points=[];portConstraint=eastwest;" vertex="1" parent="ObLxaBhGWvZHIA5DmIsv-43">
                    <mxGeometry y="52" width="160" height="8" as="geometry"/>
                </mxCell>
                <object label="+ index(req, res)&#10;+ update(req, res)" id="ObLxaBhGWvZHIA5DmIsv-46">
                    <mxCell style="text;strokeColor=none;fillColor=none;align=left;verticalAlign=top;spacingLeft=4;spacingRight=4;overflow=hidden;rotatable=0;points=[[0,0.5],[1,0.5]];portConstraint=eastwest;" vertex="1" parent="ObLxaBhGWvZHIA5DmIsv-43">
                        <mxGeometry y="60" width="160" height="40" as="geometry"/>
                    </mxCell>
                </object>
                <mxCell id="ObLxaBhGWvZHIA5DmIsv-47" style="edgeStyle=orthogonalEdgeStyle;html=1;entryX=0.5;entryY=0;entryDx=0;entryDy=0;" edge="1" parent="ObLxaBhGWvZHIA5DmIsv-1" source="ObLxaBhGWvZHIA5DmIsv-86" target="ObLxaBhGWvZHIA5DmIsv-43">
                    <mxGeometry relative="1" as="geometry">
                        <mxPoint x="-463.3546325878592" y="180" as="sourcePoint"/>
                        <Array as="points">
                            <mxPoint x="-333" y="275"/>
                        </Array>
                    </mxGeometry>
                </mxCell>
                <mxCell id="ObLxaBhGWvZHIA5DmIsv-48" style="edgeStyle=orthogonalEdgeStyle;html=1;exitX=1;exitY=0.5;exitDx=0;exitDy=0;" edge="1" parent="ObLxaBhGWvZHIA5DmIsv-1" source="ObLxaBhGWvZHIA5DmIsv-44" target="ObLxaBhGWvZHIA5DmIsv-25">
                    <mxGeometry relative="1" as="geometry">
                        <Array as="points">
                            <mxPoint x="-50" y="509"/>
                        </Array>
                    </mxGeometry>
                </mxCell>
                <mxCell id="ObLxaBhGWvZHIA5DmIsv-49" style="html=1;edgeStyle=orthogonalEdgeStyle;" edge="1" parent="ObLxaBhGWvZHIA5DmIsv-1" source="ObLxaBhGWvZHIA5DmIsv-29" target="ObLxaBhGWvZHIA5DmIsv-16">
                    <mxGeometry relative="1" as="geometry"/>
                </mxCell>
                <mxCell id="ObLxaBhGWvZHIA5DmIsv-50" style="edgeStyle=orthogonalEdgeStyle;html=1;" edge="1" parent="ObLxaBhGWvZHIA5DmIsv-1" source="ObLxaBhGWvZHIA5DmIsv-51" target="ObLxaBhGWvZHIA5DmIsv-25">
                    <mxGeometry relative="1" as="geometry">
                        <Array as="points">
                            <mxPoint x="-10" y="40"/>
                        </Array>
                    </mxGeometry>
                </mxCell>
                <mxCell id="ObLxaBhGWvZHIA5DmIsv-51" value="PanelAdminController" style="swimlane;fontStyle=1;align=center;verticalAlign=top;childLayout=stackLayout;horizontal=1;startSize=26;horizontalStack=0;resizeParent=1;resizeParentMax=0;resizeLast=0;collapsible=1;marginBottom=0;fillColor=#f0a30a;fontColor=#000000;strokeColor=#BD7000;" vertex="1" parent="ObLxaBhGWvZHIA5DmIsv-1">
                    <mxGeometry x="-250" y="-10" width="160" height="100" as="geometry">
                        <mxRectangle x="-450" y="50" width="120" height="26" as="alternateBounds"/>
                    </mxGeometry>
                </mxCell>
                <mxCell id="ObLxaBhGWvZHIA5DmIsv-52" value="+ field: type" style="text;strokeColor=none;fillColor=none;align=left;verticalAlign=top;spacingLeft=4;spacingRight=4;overflow=hidden;rotatable=0;points=[[0,0.5],[1,0.5]];portConstraint=eastwest;" vertex="1" parent="ObLxaBhGWvZHIA5DmIsv-51">
                    <mxGeometry y="26" width="160" height="26" as="geometry"/>
                </mxCell>
                <mxCell id="ObLxaBhGWvZHIA5DmIsv-53" value="" style="line;strokeWidth=1;fillColor=none;align=left;verticalAlign=middle;spacingTop=-1;spacingLeft=3;spacingRight=3;rotatable=0;labelPosition=right;points=[];portConstraint=eastwest;" vertex="1" parent="ObLxaBhGWvZHIA5DmIsv-51">
                    <mxGeometry y="52" width="160" height="8" as="geometry"/>
                </mxCell>
                <object label="+ index(req, res)" id="ObLxaBhGWvZHIA5DmIsv-54">
                    <mxCell style="text;strokeColor=none;fillColor=none;align=left;verticalAlign=top;spacingLeft=4;spacingRight=4;overflow=hidden;rotatable=0;points=[[0,0.5],[1,0.5]];portConstraint=eastwest;" vertex="1" parent="ObLxaBhGWvZHIA5DmIsv-51">
                        <mxGeometry y="60" width="160" height="40" as="geometry"/>
                    </mxCell>
                </object>
                <mxCell id="ObLxaBhGWvZHIA5DmIsv-55" style="edgeStyle=orthogonalEdgeStyle;html=1;" edge="1" parent="ObLxaBhGWvZHIA5DmIsv-1" source="ObLxaBhGWvZHIA5DmIsv-56" target="ObLxaBhGWvZHIA5DmIsv-39">
                    <mxGeometry relative="1" as="geometry">
                        <Array as="points">
                            <mxPoint x="-720" y="580"/>
                        </Array>
                    </mxGeometry>
                </mxCell>
                <mxCell id="tYB3oNeRG_XZsH0IazMp-38" style="edgeStyle=orthogonalEdgeStyle;html=1;endArrow=classic;endFill=1;startSize=6;endSize=6;" edge="1" parent="ObLxaBhGWvZHIA5DmIsv-1" source="ObLxaBhGWvZHIA5DmIsv-56" target="tYB3oNeRG_XZsH0IazMp-0">
                    <mxGeometry relative="1" as="geometry">
                        <Array as="points">
                            <mxPoint x="-395" y="620"/>
                        </Array>
                    </mxGeometry>
                </mxCell>
                <mxCell id="ObLxaBhGWvZHIA5DmIsv-56" value="AutoCrudController" style="swimlane;fontStyle=1;align=center;verticalAlign=top;childLayout=stackLayout;horizontal=1;startSize=26;horizontalStack=0;resizeParent=1;resizeParentMax=0;resizeLast=0;collapsible=1;marginBottom=0;fillColor=#f0a30a;fontColor=#000000;strokeColor=#BD7000;" vertex="1" parent="ObLxaBhGWvZHIA5DmIsv-1">
                    <mxGeometry x="-660" y="480" width="160" height="160" as="geometry">
                        <mxRectangle x="-450" y="50" width="120" height="26" as="alternateBounds"/>
                    </mxGeometry>
                </mxCell>
                <mxCell id="ObLxaBhGWvZHIA5DmIsv-57" value="+ field: type" style="text;strokeColor=none;fillColor=none;align=left;verticalAlign=top;spacingLeft=4;spacingRight=4;overflow=hidden;rotatable=0;points=[[0,0.5],[1,0.5]];portConstraint=eastwest;" vertex="1" parent="ObLxaBhGWvZHIA5DmIsv-56">
                    <mxGeometry y="26" width="160" height="26" as="geometry"/>
                </mxCell>
                <mxCell id="ObLxaBhGWvZHIA5DmIsv-58" value="" style="line;strokeWidth=1;fillColor=none;align=left;verticalAlign=middle;spacingTop=-1;spacingLeft=3;spacingRight=3;rotatable=0;labelPosition=right;points=[];portConstraint=eastwest;" vertex="1" parent="ObLxaBhGWvZHIA5DmIsv-56">
                    <mxGeometry y="52" width="160" height="8" as="geometry"/>
                </mxCell>
                <object label="+ index(req, res)&#10;+ create(req, res)&#10;+ store(req, res)&#10;+ edit(req, res)&#10;+ update(req, res)&#10;+ destroy(req, res)" id="ObLxaBhGWvZHIA5DmIsv-59">
                    <mxCell style="text;strokeColor=none;fillColor=none;align=left;verticalAlign=top;spacingLeft=4;spacingRight=4;overflow=hidden;rotatable=0;points=[[0,0.5],[1,0.5]];portConstraint=eastwest;" vertex="1" parent="ObLxaBhGWvZHIA5DmIsv-56">
                        <mxGeometry y="60" width="160" height="100" as="geometry"/>
                    </mxCell>
                </object>
                <mxCell id="ObLxaBhGWvZHIA5DmIsv-60" style="edgeStyle=orthogonalEdgeStyle;html=1;" edge="1" parent="ObLxaBhGWvZHIA5DmIsv-1" source="ObLxaBhGWvZHIA5DmIsv-61" target="ObLxaBhGWvZHIA5DmIsv-39">
                    <mxGeometry relative="1" as="geometry">
                        <Array as="points">
                            <mxPoint x="-780" y="580"/>
                        </Array>
                    </mxGeometry>
                </mxCell>
                <mxCell id="pVzrOTONpcAmTK-Gg5EX-0" style="edgeStyle=orthogonalEdgeStyle;html=1;endArrow=classic;endFill=1;startSize=6;endSize=6;" edge="1" parent="ObLxaBhGWvZHIA5DmIsv-1" source="ObLxaBhGWvZHIA5DmIsv-61" target="lDwLo3Hw_SSHz3EmmH_j-0">
                    <mxGeometry relative="1" as="geometry">
                        <Array as="points">
                            <mxPoint x="-790" y="520"/>
                        </Array>
                    </mxGeometry>
                </mxCell>
                <mxCell id="ObLxaBhGWvZHIA5DmIsv-61" value="ApiAutoCrudController" style="swimlane;fontStyle=1;align=center;verticalAlign=top;childLayout=stackLayout;horizontal=1;startSize=26;horizontalStack=0;resizeParent=1;resizeParentMax=0;resizeLast=0;collapsible=1;marginBottom=0;fillColor=#f0a30a;fontColor=#000000;strokeColor=#BD7000;" vertex="1" parent="ObLxaBhGWvZHIA5DmIsv-1">
                    <mxGeometry x="-1010" y="480" width="160" height="140" as="geometry">
                        <mxRectangle x="-450" y="50" width="120" height="26" as="alternateBounds"/>
                    </mxGeometry>
                </mxCell>
                <mxCell id="ObLxaBhGWvZHIA5DmIsv-62" value="+ field: type" style="text;strokeColor=none;fillColor=none;align=left;verticalAlign=top;spacingLeft=4;spacingRight=4;overflow=hidden;rotatable=0;points=[[0,0.5],[1,0.5]];portConstraint=eastwest;" vertex="1" parent="ObLxaBhGWvZHIA5DmIsv-61">
                    <mxGeometry y="26" width="160" height="26" as="geometry"/>
                </mxCell>
                <mxCell id="ObLxaBhGWvZHIA5DmIsv-63" value="" style="line;strokeWidth=1;fillColor=none;align=left;verticalAlign=middle;spacingTop=-1;spacingLeft=3;spacingRight=3;rotatable=0;labelPosition=right;points=[];portConstraint=eastwest;" vertex="1" parent="ObLxaBhGWvZHIA5DmIsv-61">
                    <mxGeometry y="52" width="160" height="8" as="geometry"/>
                </mxCell>
                <object label="+ index(req, res)&#10;+ store(req, res)&#10;+ show(req, res)&#10;+ update(req, res)&#10;+ destroy(req, res)" id="ObLxaBhGWvZHIA5DmIsv-64">
                    <mxCell style="text;strokeColor=none;fillColor=none;align=left;verticalAlign=top;spacingLeft=4;spacingRight=4;overflow=hidden;rotatable=0;points=[[0,0.5],[1,0.5]];portConstraint=eastwest;" vertex="1" parent="ObLxaBhGWvZHIA5DmIsv-61">
                        <mxGeometry y="60" width="160" height="80" as="geometry"/>
                    </mxCell>
                </object>
                <mxCell id="ObLxaBhGWvZHIA5DmIsv-105" style="edgeStyle=none;html=1;" edge="1" parent="ObLxaBhGWvZHIA5DmIsv-1" source="ObLxaBhGWvZHIA5DmIsv-65" target="ObLxaBhGWvZHIA5DmIsv-77">
                    <mxGeometry relative="1" as="geometry"/>
                </mxCell>
                <mxCell id="ObLxaBhGWvZHIA5DmIsv-108" style="edgeStyle=none;html=1;" edge="1" parent="ObLxaBhGWvZHIA5DmIsv-1" source="ObLxaBhGWvZHIA5DmIsv-65" target="ObLxaBhGWvZHIA5DmIsv-89">
                    <mxGeometry relative="1" as="geometry"/>
                </mxCell>
                <mxCell id="ObLxaBhGWvZHIA5DmIsv-109" style="edgeStyle=none;html=1;" edge="1" parent="ObLxaBhGWvZHIA5DmIsv-1" source="ObLxaBhGWvZHIA5DmIsv-65" target="ObLxaBhGWvZHIA5DmIsv-83">
                    <mxGeometry relative="1" as="geometry"/>
                </mxCell>
                <mxCell id="ObLxaBhGWvZHIA5DmIsv-110" style="edgeStyle=none;html=1;" edge="1" parent="ObLxaBhGWvZHIA5DmIsv-1" source="ObLxaBhGWvZHIA5DmIsv-65" target="ObLxaBhGWvZHIA5DmIsv-86">
                    <mxGeometry relative="1" as="geometry"/>
                </mxCell>
                <mxCell id="ObLxaBhGWvZHIA5DmIsv-111" style="edgeStyle=none;html=1;" edge="1" parent="ObLxaBhGWvZHIA5DmIsv-1" source="ObLxaBhGWvZHIA5DmIsv-65" target="ObLxaBhGWvZHIA5DmIsv-80">
                    <mxGeometry relative="1" as="geometry"/>
                </mxCell>
                <mxCell id="ObLxaBhGWvZHIA5DmIsv-65" value="AppRouter" style="swimlane;fontStyle=1;align=center;verticalAlign=top;childLayout=stackLayout;horizontal=1;startSize=26;horizontalStack=0;resizeParent=1;resizeParentMax=0;resizeLast=0;collapsible=1;marginBottom=0;fillColor=#008a00;fontColor=#ffffff;strokeColor=#005700;" vertex="1" parent="ObLxaBhGWvZHIA5DmIsv-1">
                    <mxGeometry x="-910" y="-40" width="180" height="60" as="geometry"/>
                </mxCell>
                <mxCell id="ObLxaBhGWvZHIA5DmIsv-66" value="" style="line;strokeWidth=1;fillColor=none;align=left;verticalAlign=middle;spacingTop=-1;spacingLeft=3;spacingRight=3;rotatable=0;labelPosition=right;points=[];portConstraint=eastwest;" vertex="1" parent="ObLxaBhGWvZHIA5DmIsv-65">
                    <mxGeometry y="26" width="180" height="8" as="geometry"/>
                </mxCell>
                <mxCell id="ObLxaBhGWvZHIA5DmIsv-67" value="+ getRoutes(): expressRouter" style="text;strokeColor=none;fillColor=none;align=left;verticalAlign=top;spacingLeft=4;spacingRight=4;overflow=hidden;rotatable=0;points=[[0,0.5],[1,0.5]];portConstraint=eastwest;fontStyle=4" vertex="1" parent="ObLxaBhGWvZHIA5DmIsv-65">
                    <mxGeometry y="34" width="180" height="26" as="geometry"/>
                </mxCell>
                <mxCell id="ObLxaBhGWvZHIA5DmIsv-76" style="edgeStyle=none;html=1;" edge="1" parent="ObLxaBhGWvZHIA5DmIsv-1" source="ObLxaBhGWvZHIA5DmIsv-68" target="ObLxaBhGWvZHIA5DmIsv-21">
                    <mxGeometry relative="1" as="geometry"/>
                </mxCell>
                <mxCell id="ObLxaBhGWvZHIA5DmIsv-101" style="edgeStyle=none;html=1;" edge="1" parent="ObLxaBhGWvZHIA5DmIsv-1" source="ObLxaBhGWvZHIA5DmIsv-68" target="ObLxaBhGWvZHIA5DmIsv-98">
                    <mxGeometry relative="1" as="geometry"/>
                </mxCell>
                <mxCell id="ObLxaBhGWvZHIA5DmIsv-103" style="edgeStyle=orthogonalEdgeStyle;html=1;" edge="1" parent="ObLxaBhGWvZHIA5DmIsv-1" source="ObLxaBhGWvZHIA5DmIsv-68" target="ObLxaBhGWvZHIA5DmIsv-95">
                    <mxGeometry relative="1" as="geometry"/>
                </mxCell>
                <mxCell id="ObLxaBhGWvZHIA5DmIsv-68" value="ApiRouter" style="swimlane;fontStyle=1;align=center;verticalAlign=top;childLayout=stackLayout;horizontal=1;startSize=26;horizontalStack=0;resizeParent=1;resizeParentMax=0;resizeLast=0;collapsible=1;marginBottom=0;fillColor=#008a00;fontColor=#ffffff;strokeColor=#005700;" vertex="1" parent="ObLxaBhGWvZHIA5DmIsv-1">
                    <mxGeometry x="-1320" y="190" width="180" height="60" as="geometry"/>
                </mxCell>
                <mxCell id="ObLxaBhGWvZHIA5DmIsv-69" value="" style="line;strokeWidth=1;fillColor=none;align=left;verticalAlign=middle;spacingTop=-1;spacingLeft=3;spacingRight=3;rotatable=0;labelPosition=right;points=[];portConstraint=eastwest;" vertex="1" parent="ObLxaBhGWvZHIA5DmIsv-68">
                    <mxGeometry y="26" width="180" height="8" as="geometry"/>
                </mxCell>
                <mxCell id="ObLxaBhGWvZHIA5DmIsv-70" value="+ getRoutes(): expressRouter" style="text;strokeColor=none;fillColor=none;align=left;verticalAlign=top;spacingLeft=4;spacingRight=4;overflow=hidden;rotatable=0;points=[[0,0.5],[1,0.5]];portConstraint=eastwest;fontStyle=4" vertex="1" parent="ObLxaBhGWvZHIA5DmIsv-68">
                    <mxGeometry y="34" width="180" height="26" as="geometry"/>
                </mxCell>
                <mxCell id="ObLxaBhGWvZHIA5DmIsv-74" style="edgeStyle=orthogonalEdgeStyle;html=1;" edge="1" parent="ObLxaBhGWvZHIA5DmIsv-1" source="ObLxaBhGWvZHIA5DmIsv-71" target="ObLxaBhGWvZHIA5DmIsv-65">
                    <mxGeometry relative="1" as="geometry">
                        <Array as="points">
                            <mxPoint x="-1000" y="-20"/>
                        </Array>
                    </mxGeometry>
                </mxCell>
                <mxCell id="ObLxaBhGWvZHIA5DmIsv-75" style="edgeStyle=orthogonalEdgeStyle;html=1;" edge="1" parent="ObLxaBhGWvZHIA5DmIsv-1" source="ObLxaBhGWvZHIA5DmIsv-71" target="ObLxaBhGWvZHIA5DmIsv-68">
                    <mxGeometry relative="1" as="geometry">
                        <Array as="points">
                            <mxPoint x="-1170" y="100"/>
                        </Array>
                    </mxGeometry>
                </mxCell>
                <mxCell id="ObLxaBhGWvZHIA5DmIsv-71" value="Router" style="swimlane;fontStyle=1;align=center;verticalAlign=top;childLayout=stackLayout;horizontal=1;startSize=26;horizontalStack=0;resizeParent=1;resizeParentMax=0;resizeLast=0;collapsible=1;marginBottom=0;fillColor=#008a00;fontColor=#ffffff;strokeColor=#005700;" vertex="1" parent="ObLxaBhGWvZHIA5DmIsv-1">
                    <mxGeometry x="-1120" y="40" width="180" height="60" as="geometry"/>
                </mxCell>
                <mxCell id="ObLxaBhGWvZHIA5DmIsv-72" value="" style="line;strokeWidth=1;fillColor=none;align=left;verticalAlign=middle;spacingTop=-1;spacingLeft=3;spacingRight=3;rotatable=0;labelPosition=right;points=[];portConstraint=eastwest;" vertex="1" parent="ObLxaBhGWvZHIA5DmIsv-71">
                    <mxGeometry y="26" width="180" height="8" as="geometry"/>
                </mxCell>
                <mxCell id="ObLxaBhGWvZHIA5DmIsv-73" value="+ getRoutes(): expressRouter" style="text;strokeColor=none;fillColor=none;align=left;verticalAlign=top;spacingLeft=4;spacingRight=4;overflow=hidden;rotatable=0;points=[[0,0.5],[1,0.5]];portConstraint=eastwest;fontStyle=4" vertex="1" parent="ObLxaBhGWvZHIA5DmIsv-71">
                    <mxGeometry y="34" width="180" height="26" as="geometry"/>
                </mxCell>
                <mxCell id="ObLxaBhGWvZHIA5DmIsv-107" style="edgeStyle=none;html=1;" edge="1" parent="ObLxaBhGWvZHIA5DmIsv-1" source="ObLxaBhGWvZHIA5DmIsv-80" target="ObLxaBhGWvZHIA5DmIsv-56">
                    <mxGeometry relative="1" as="geometry"/>
                </mxCell>
                <mxCell id="ObLxaBhGWvZHIA5DmIsv-80" value="AutoCrudRouter" style="swimlane;fontStyle=1;align=center;verticalAlign=top;childLayout=stackLayout;horizontal=1;startSize=26;horizontalStack=0;resizeParent=1;resizeParentMax=0;resizeLast=0;collapsible=1;marginBottom=0;fillColor=#008a00;fontColor=#ffffff;strokeColor=#005700;" vertex="1" parent="ObLxaBhGWvZHIA5DmIsv-1">
                    <mxGeometry x="-670" y="370" width="180" height="60" as="geometry"/>
                </mxCell>
                <mxCell id="ObLxaBhGWvZHIA5DmIsv-81" value="" style="line;strokeWidth=1;fillColor=none;align=left;verticalAlign=middle;spacingTop=-1;spacingLeft=3;spacingRight=3;rotatable=0;labelPosition=right;points=[];portConstraint=eastwest;" vertex="1" parent="ObLxaBhGWvZHIA5DmIsv-80">
                    <mxGeometry y="26" width="180" height="8" as="geometry"/>
                </mxCell>
                <mxCell id="ObLxaBhGWvZHIA5DmIsv-82" value="+ getRoutes(): expressRouter" style="text;strokeColor=none;fillColor=none;align=left;verticalAlign=top;spacingLeft=4;spacingRight=4;overflow=hidden;rotatable=0;points=[[0,0.5],[1,0.5]];portConstraint=eastwest;fontStyle=4" vertex="1" parent="ObLxaBhGWvZHIA5DmIsv-80">
                    <mxGeometry y="34" width="180" height="26" as="geometry"/>
                </mxCell>
                <mxCell id="ObLxaBhGWvZHIA5DmIsv-83" value="CollectionsRouter" style="swimlane;fontStyle=1;align=center;verticalAlign=top;childLayout=stackLayout;horizontal=1;startSize=26;horizontalStack=0;resizeParent=1;resizeParentMax=0;resizeLast=0;collapsible=1;marginBottom=0;fillColor=#008a00;fontColor=#ffffff;strokeColor=#005700;" vertex="1" parent="ObLxaBhGWvZHIA5DmIsv-1">
                    <mxGeometry x="-580" y="120" width="180" height="60" as="geometry"/>
                </mxCell>
                <mxCell id="ObLxaBhGWvZHIA5DmIsv-84" value="" style="line;strokeWidth=1;fillColor=none;align=left;verticalAlign=middle;spacingTop=-1;spacingLeft=3;spacingRight=3;rotatable=0;labelPosition=right;points=[];portConstraint=eastwest;" vertex="1" parent="ObLxaBhGWvZHIA5DmIsv-83">
                    <mxGeometry y="26" width="180" height="8" as="geometry"/>
                </mxCell>
                <mxCell id="ObLxaBhGWvZHIA5DmIsv-85" value="+ getRoutes(): expressRouter" style="text;strokeColor=none;fillColor=none;align=left;verticalAlign=top;spacingLeft=4;spacingRight=4;overflow=hidden;rotatable=0;points=[[0,0.5],[1,0.5]];portConstraint=eastwest;fontStyle=4" vertex="1" parent="ObLxaBhGWvZHIA5DmIsv-83">
                    <mxGeometry y="34" width="180" height="26" as="geometry"/>
                </mxCell>
                <mxCell id="ObLxaBhGWvZHIA5DmIsv-89" value="PanelAdminRouter" style="swimlane;fontStyle=1;align=center;verticalAlign=top;childLayout=stackLayout;horizontal=1;startSize=26;horizontalStack=0;resizeParent=1;resizeParentMax=0;resizeLast=0;collapsible=1;marginBottom=0;fillColor=#008a00;fontColor=#ffffff;strokeColor=#005700;" vertex="1" parent="ObLxaBhGWvZHIA5DmIsv-1">
                    <mxGeometry x="-580" y="10" width="180" height="60" as="geometry"/>
                </mxCell>
                <mxCell id="ObLxaBhGWvZHIA5DmIsv-90" value="" style="line;strokeWidth=1;fillColor=none;align=left;verticalAlign=middle;spacingTop=-1;spacingLeft=3;spacingRight=3;rotatable=0;labelPosition=right;points=[];portConstraint=eastwest;" vertex="1" parent="ObLxaBhGWvZHIA5DmIsv-89">
                    <mxGeometry y="26" width="180" height="8" as="geometry"/>
                </mxCell>
                <mxCell id="ObLxaBhGWvZHIA5DmIsv-91" value="+ getRoutes(): expressRouter" style="text;strokeColor=none;fillColor=none;align=left;verticalAlign=top;spacingLeft=4;spacingRight=4;overflow=hidden;rotatable=0;points=[[0,0.5],[1,0.5]];portConstraint=eastwest;fontStyle=4" vertex="1" parent="ObLxaBhGWvZHIA5DmIsv-89">
                    <mxGeometry y="34" width="180" height="26" as="geometry"/>
                </mxCell>
                <mxCell id="ObLxaBhGWvZHIA5DmIsv-106" style="edgeStyle=orthogonalEdgeStyle;html=1;" edge="1" parent="ObLxaBhGWvZHIA5DmIsv-1" source="ObLxaBhGWvZHIA5DmIsv-92" target="ObLxaBhGWvZHIA5DmIsv-12">
                    <mxGeometry relative="1" as="geometry"/>
                </mxCell>
                <mxCell id="ObLxaBhGWvZHIA5DmIsv-92" value="UsersRouter" style="swimlane;fontStyle=1;align=center;verticalAlign=top;childLayout=stackLayout;horizontal=1;startSize=26;horizontalStack=0;resizeParent=1;resizeParentMax=0;resizeLast=0;collapsible=1;marginBottom=0;fillColor=#008a00;fontColor=#ffffff;strokeColor=#005700;" vertex="1" parent="ObLxaBhGWvZHIA5DmIsv-1">
                    <mxGeometry x="-580" y="-90" width="180" height="60" as="geometry"/>
                </mxCell>
                <mxCell id="ObLxaBhGWvZHIA5DmIsv-93" value="" style="line;strokeWidth=1;fillColor=none;align=left;verticalAlign=middle;spacingTop=-1;spacingLeft=3;spacingRight=3;rotatable=0;labelPosition=right;points=[];portConstraint=eastwest;" vertex="1" parent="ObLxaBhGWvZHIA5DmIsv-92">
                    <mxGeometry y="26" width="180" height="8" as="geometry"/>
                </mxCell>
                <mxCell id="ObLxaBhGWvZHIA5DmIsv-94" value="+ getRoutes(): expressRouter" style="text;strokeColor=none;fillColor=none;align=left;verticalAlign=top;spacingLeft=4;spacingRight=4;overflow=hidden;rotatable=0;points=[[0,0.5],[1,0.5]];portConstraint=eastwest;fontStyle=4" vertex="1" parent="ObLxaBhGWvZHIA5DmIsv-92">
                    <mxGeometry y="34" width="180" height="26" as="geometry"/>
                </mxCell>
                <mxCell id="ObLxaBhGWvZHIA5DmIsv-102" style="edgeStyle=orthogonalEdgeStyle;html=1;" edge="1" parent="ObLxaBhGWvZHIA5DmIsv-1" source="ObLxaBhGWvZHIA5DmIsv-95" target="ObLxaBhGWvZHIA5DmIsv-29">
                    <mxGeometry relative="1" as="geometry">
                        <Array as="points">
                            <mxPoint x="-1230" y="-270"/>
                        </Array>
                    </mxGeometry>
                </mxCell>
                <mxCell id="ObLxaBhGWvZHIA5DmIsv-95" value="ApiAuthRouter" style="swimlane;fontStyle=1;align=center;verticalAlign=top;childLayout=stackLayout;horizontal=1;startSize=26;horizontalStack=0;resizeParent=1;resizeParentMax=0;resizeLast=0;collapsible=1;marginBottom=0;fillColor=#008a00;fontColor=#ffffff;strokeColor=#005700;" vertex="1" parent="ObLxaBhGWvZHIA5DmIsv-1">
                    <mxGeometry x="-1320" y="-130" width="180" height="60" as="geometry"/>
                </mxCell>
                <mxCell id="ObLxaBhGWvZHIA5DmIsv-96" value="" style="line;strokeWidth=1;fillColor=none;align=left;verticalAlign=middle;spacingTop=-1;spacingLeft=3;spacingRight=3;rotatable=0;labelPosition=right;points=[];portConstraint=eastwest;" vertex="1" parent="ObLxaBhGWvZHIA5DmIsv-95">
                    <mxGeometry y="26" width="180" height="8" as="geometry"/>
                </mxCell>
                <mxCell id="ObLxaBhGWvZHIA5DmIsv-97" value="+ getRoutes(): expressRouter" style="text;strokeColor=none;fillColor=none;align=left;verticalAlign=top;spacingLeft=4;spacingRight=4;overflow=hidden;rotatable=0;points=[[0,0.5],[1,0.5]];portConstraint=eastwest;fontStyle=4" vertex="1" parent="ObLxaBhGWvZHIA5DmIsv-95">
                    <mxGeometry y="34" width="180" height="26" as="geometry"/>
                </mxCell>
                <mxCell id="ObLxaBhGWvZHIA5DmIsv-98" value="ApiAutoCrudRouter" style="swimlane;fontStyle=1;align=center;verticalAlign=top;childLayout=stackLayout;horizontal=1;startSize=26;horizontalStack=0;resizeParent=1;resizeParentMax=0;resizeLast=0;collapsible=1;marginBottom=0;fillColor=#008a00;fontColor=#ffffff;strokeColor=#005700;" vertex="1" parent="ObLxaBhGWvZHIA5DmIsv-1">
                    <mxGeometry x="-1320" y="350" width="180" height="60" as="geometry"/>
                </mxCell>
                <mxCell id="ObLxaBhGWvZHIA5DmIsv-99" value="" style="line;strokeWidth=1;fillColor=none;align=left;verticalAlign=middle;spacingTop=-1;spacingLeft=3;spacingRight=3;rotatable=0;labelPosition=right;points=[];portConstraint=eastwest;" vertex="1" parent="ObLxaBhGWvZHIA5DmIsv-98">
                    <mxGeometry y="26" width="180" height="8" as="geometry"/>
                </mxCell>
                <mxCell id="ObLxaBhGWvZHIA5DmIsv-100" value="+ getRoutes(): expressRouter" style="text;strokeColor=none;fillColor=none;align=left;verticalAlign=top;spacingLeft=4;spacingRight=4;overflow=hidden;rotatable=0;points=[[0,0.5],[1,0.5]];portConstraint=eastwest;fontStyle=4" vertex="1" parent="ObLxaBhGWvZHIA5DmIsv-98">
                    <mxGeometry y="34" width="180" height="26" as="geometry"/>
                </mxCell>
                <mxCell id="ObLxaBhGWvZHIA5DmIsv-77" value="AuthRouter" style="swimlane;fontStyle=1;align=center;verticalAlign=top;childLayout=stackLayout;horizontal=1;startSize=26;horizontalStack=0;resizeParent=1;resizeParentMax=0;resizeLast=0;collapsible=1;marginBottom=0;fillColor=#008a00;fontColor=#ffffff;strokeColor=#005700;" vertex="1" parent="ObLxaBhGWvZHIA5DmIsv-1">
                    <mxGeometry x="-910" y="-160" width="180" height="60" as="geometry"/>
                </mxCell>
                <mxCell id="ObLxaBhGWvZHIA5DmIsv-78" value="" style="line;strokeWidth=1;fillColor=none;align=left;verticalAlign=middle;spacingTop=-1;spacingLeft=3;spacingRight=3;rotatable=0;labelPosition=right;points=[];portConstraint=eastwest;" vertex="1" parent="ObLxaBhGWvZHIA5DmIsv-77">
                    <mxGeometry y="26" width="180" height="8" as="geometry"/>
                </mxCell>
                <mxCell id="ObLxaBhGWvZHIA5DmIsv-79" value="+ getRoutes(): expressRouter" style="text;strokeColor=none;fillColor=none;align=left;verticalAlign=top;spacingLeft=4;spacingRight=4;overflow=hidden;rotatable=0;points=[[0,0.5],[1,0.5]];portConstraint=eastwest;fontStyle=4" vertex="1" parent="ObLxaBhGWvZHIA5DmIsv-77">
                    <mxGeometry y="34" width="180" height="26" as="geometry"/>
                </mxCell>
                <mxCell id="ObLxaBhGWvZHIA5DmIsv-86" value="FieldsRouter" style="swimlane;fontStyle=1;align=center;verticalAlign=top;childLayout=stackLayout;horizontal=1;startSize=26;horizontalStack=0;resizeParent=1;resizeParentMax=0;resizeLast=0;collapsible=1;marginBottom=0;fillColor=#008a00;fontColor=#ffffff;strokeColor=#005700;" vertex="1" parent="ObLxaBhGWvZHIA5DmIsv-1">
                    <mxGeometry x="-580" y="245" width="180" height="60" as="geometry"/>
                </mxCell>
                <mxCell id="ObLxaBhGWvZHIA5DmIsv-87" value="" style="line;strokeWidth=1;fillColor=none;align=left;verticalAlign=middle;spacingTop=-1;spacingLeft=3;spacingRight=3;rotatable=0;labelPosition=right;points=[];portConstraint=eastwest;" vertex="1" parent="ObLxaBhGWvZHIA5DmIsv-86">
                    <mxGeometry y="26" width="180" height="8" as="geometry"/>
                </mxCell>
                <mxCell id="ObLxaBhGWvZHIA5DmIsv-88" value="+ getRoutes(): expressRouter" style="text;strokeColor=none;fillColor=none;align=left;verticalAlign=top;spacingLeft=4;spacingRight=4;overflow=hidden;rotatable=0;points=[[0,0.5],[1,0.5]];portConstraint=eastwest;fontStyle=4" vertex="1" parent="ObLxaBhGWvZHIA5DmIsv-86">
                    <mxGeometry y="34" width="180" height="26" as="geometry"/>
                </mxCell>
                <mxCell id="tYB3oNeRG_XZsH0IazMp-37" style="edgeStyle=orthogonalEdgeStyle;html=1;endArrow=classic;endFill=1;startSize=6;endSize=6;" edge="1" parent="ObLxaBhGWvZHIA5DmIsv-1" source="tYB3oNeRG_XZsH0IazMp-0" target="tYB3oNeRG_XZsH0IazMp-20">
                    <mxGeometry relative="1" as="geometry"/>
                </mxCell>
                <mxCell id="tYB3oNeRG_XZsH0IazMp-0" value="Form" style="swimlane;fontStyle=1;align=center;verticalAlign=top;childLayout=stackLayout;horizontal=1;startSize=26;horizontalStack=0;resizeParent=1;resizeParentMax=0;resizeLast=0;collapsible=1;marginBottom=0;fillColor=#1ba1e2;fontColor=#ffffff;strokeColor=#006EAF;" vertex="1" parent="ObLxaBhGWvZHIA5DmIsv-1">
                    <mxGeometry x="-600" y="850" width="410" height="150" as="geometry"/>
                </mxCell>
                <mxCell id="tYB3oNeRG_XZsH0IazMp-1" value="+ action: String&#10;+ fields: Array&#10;+ data: Object&#10;+ cancelUrl: String" style="text;strokeColor=none;fillColor=none;align=left;verticalAlign=top;spacingLeft=4;spacingRight=4;overflow=hidden;rotatable=0;points=[[0,0.5],[1,0.5]];portConstraint=eastwest;" vertex="1" parent="tYB3oNeRG_XZsH0IazMp-0">
                    <mxGeometry y="26" width="410" height="64" as="geometry"/>
                </mxCell>
                <mxCell id="tYB3oNeRG_XZsH0IazMp-2" value="" style="line;strokeWidth=1;fillColor=none;align=left;verticalAlign=middle;spacingTop=-1;spacingLeft=3;spacingRight=3;rotatable=0;labelPosition=right;points=[];portConstraint=eastwest;" vertex="1" parent="tYB3oNeRG_XZsH0IazMp-0">
                    <mxGeometry y="90" width="410" height="8" as="geometry"/>
                </mxCell>
                <mxCell id="tYB3oNeRG_XZsH0IazMp-3" value="+ constructor(url: String, fields: Array, cancelUrl: String, data: Object): void&#10;+ dsp(): String" style="text;strokeColor=none;fillColor=none;align=left;verticalAlign=top;spacingLeft=4;spacingRight=4;overflow=hidden;rotatable=0;points=[[0,0.5],[1,0.5]];portConstraint=eastwest;" vertex="1" parent="tYB3oNeRG_XZsH0IazMp-0">
                    <mxGeometry y="98" width="410" height="52" as="geometry"/>
                </mxCell>
                <mxCell id="tYB3oNeRG_XZsH0IazMp-34" style="edgeStyle=orthogonalEdgeStyle;html=1;endArrow=block;endFill=1;startSize=6;endSize=12;" edge="1" parent="ObLxaBhGWvZHIA5DmIsv-1" source="tYB3oNeRG_XZsH0IazMp-4" target="tYB3oNeRG_XZsH0IazMp-24">
                    <mxGeometry relative="1" as="geometry"/>
                </mxCell>
                <mxCell id="tYB3oNeRG_XZsH0IazMp-4" value="Email" style="swimlane;fontStyle=1;align=center;verticalAlign=top;childLayout=stackLayout;horizontal=1;startSize=26;horizontalStack=0;resizeParent=1;resizeParentMax=0;resizeLast=0;collapsible=1;marginBottom=0;fillColor=#1ba1e2;fontColor=#ffffff;strokeColor=#006EAF;" vertex="1" parent="ObLxaBhGWvZHIA5DmIsv-1">
                    <mxGeometry x="-1240" y="1220" width="180" height="86" as="geometry"/>
                </mxCell>
                <mxCell id="tYB3oNeRG_XZsH0IazMp-5" value="+ type: String" style="text;strokeColor=none;fillColor=none;align=left;verticalAlign=top;spacingLeft=4;spacingRight=4;overflow=hidden;rotatable=0;points=[[0,0.5],[1,0.5]];portConstraint=eastwest;" vertex="1" parent="tYB3oNeRG_XZsH0IazMp-4">
                    <mxGeometry y="26" width="180" height="26" as="geometry"/>
                </mxCell>
                <mxCell id="tYB3oNeRG_XZsH0IazMp-6" value="" style="line;strokeWidth=1;fillColor=none;align=left;verticalAlign=middle;spacingTop=-1;spacingLeft=3;spacingRight=3;rotatable=0;labelPosition=right;points=[];portConstraint=eastwest;" vertex="1" parent="tYB3oNeRG_XZsH0IazMp-4">
                    <mxGeometry y="52" width="180" height="8" as="geometry"/>
                </mxCell>
                <mxCell id="tYB3oNeRG_XZsH0IazMp-7" value="+ constructor(confInput: Object)" style="text;strokeColor=none;fillColor=none;align=left;verticalAlign=top;spacingLeft=4;spacingRight=4;overflow=hidden;rotatable=0;points=[[0,0.5],[1,0.5]];portConstraint=eastwest;" vertex="1" parent="tYB3oNeRG_XZsH0IazMp-4">
                    <mxGeometry y="60" width="180" height="26" as="geometry"/>
                </mxCell>
                <mxCell id="tYB3oNeRG_XZsH0IazMp-35" style="edgeStyle=orthogonalEdgeStyle;html=1;endArrow=block;endFill=1;startSize=6;endSize=12;exitX=0.5;exitY=0;exitDx=0;exitDy=0;" edge="1" parent="ObLxaBhGWvZHIA5DmIsv-1" source="tYB3oNeRG_XZsH0IazMp-8" target="tYB3oNeRG_XZsH0IazMp-24">
                    <mxGeometry relative="1" as="geometry">
                        <mxPoint x="-1085" y="948" as="targetPoint"/>
                        <Array as="points">
                            <mxPoint x="-960" y="1078"/>
                        </Array>
                    </mxGeometry>
                </mxCell>
                <mxCell id="tYB3oNeRG_XZsH0IazMp-8" value="Number" style="swimlane;fontStyle=1;align=center;verticalAlign=top;childLayout=stackLayout;horizontal=1;startSize=26;horizontalStack=0;resizeParent=1;resizeParentMax=0;resizeLast=0;collapsible=1;marginBottom=0;fillColor=#1ba1e2;fontColor=#ffffff;strokeColor=#006EAF;" vertex="1" parent="ObLxaBhGWvZHIA5DmIsv-1">
                    <mxGeometry x="-1050" y="1220" width="180" height="86" as="geometry"/>
                </mxCell>
                <mxCell id="tYB3oNeRG_XZsH0IazMp-9" value="+ type: String" style="text;strokeColor=none;fillColor=none;align=left;verticalAlign=top;spacingLeft=4;spacingRight=4;overflow=hidden;rotatable=0;points=[[0,0.5],[1,0.5]];portConstraint=eastwest;" vertex="1" parent="tYB3oNeRG_XZsH0IazMp-8">
                    <mxGeometry y="26" width="180" height="26" as="geometry"/>
                </mxCell>
                <mxCell id="tYB3oNeRG_XZsH0IazMp-10" value="" style="line;strokeWidth=1;fillColor=none;align=left;verticalAlign=middle;spacingTop=-1;spacingLeft=3;spacingRight=3;rotatable=0;labelPosition=right;points=[];portConstraint=eastwest;" vertex="1" parent="tYB3oNeRG_XZsH0IazMp-8">
                    <mxGeometry y="52" width="180" height="8" as="geometry"/>
                </mxCell>
                <mxCell id="tYB3oNeRG_XZsH0IazMp-11" value="+ constructor(confInput: Object)" style="text;strokeColor=none;fillColor=none;align=left;verticalAlign=top;spacingLeft=4;spacingRight=4;overflow=hidden;rotatable=0;points=[[0,0.5],[1,0.5]];portConstraint=eastwest;" vertex="1" parent="tYB3oNeRG_XZsH0IazMp-8">
                    <mxGeometry y="60" width="180" height="26" as="geometry"/>
                </mxCell>
                <mxCell id="tYB3oNeRG_XZsH0IazMp-36" style="edgeStyle=orthogonalEdgeStyle;html=1;endArrow=block;endFill=1;startSize=6;endSize=12;exitX=0.5;exitY=0;exitDx=0;exitDy=0;" edge="1" parent="ObLxaBhGWvZHIA5DmIsv-1" source="tYB3oNeRG_XZsH0IazMp-16" target="tYB3oNeRG_XZsH0IazMp-24">
                    <mxGeometry relative="1" as="geometry">
                        <mxPoint x="-770" y="1200" as="sourcePoint"/>
                        <Array as="points">
                            <mxPoint x="-665" y="1058"/>
                        </Array>
                    </mxGeometry>
                </mxCell>
                <mxCell id="tYB3oNeRG_XZsH0IazMp-12" value="Text" style="swimlane;fontStyle=1;align=center;verticalAlign=top;childLayout=stackLayout;horizontal=1;startSize=26;horizontalStack=0;resizeParent=1;resizeParentMax=0;resizeLast=0;collapsible=1;marginBottom=0;fillColor=#1ba1e2;fontColor=#ffffff;strokeColor=#006EAF;" vertex="1" parent="ObLxaBhGWvZHIA5DmIsv-1">
                    <mxGeometry x="-1430" y="1220" width="180" height="86" as="geometry"/>
                </mxCell>
                <mxCell id="tYB3oNeRG_XZsH0IazMp-13" value="+ type: String" style="text;strokeColor=none;fillColor=none;align=left;verticalAlign=top;spacingLeft=4;spacingRight=4;overflow=hidden;rotatable=0;points=[[0,0.5],[1,0.5]];portConstraint=eastwest;" vertex="1" parent="tYB3oNeRG_XZsH0IazMp-12">
                    <mxGeometry y="26" width="180" height="26" as="geometry"/>
                </mxCell>
                <mxCell id="tYB3oNeRG_XZsH0IazMp-14" value="" style="line;strokeWidth=1;fillColor=none;align=left;verticalAlign=middle;spacingTop=-1;spacingLeft=3;spacingRight=3;rotatable=0;labelPosition=right;points=[];portConstraint=eastwest;" vertex="1" parent="tYB3oNeRG_XZsH0IazMp-12">
                    <mxGeometry y="52" width="180" height="8" as="geometry"/>
                </mxCell>
                <mxCell id="tYB3oNeRG_XZsH0IazMp-15" value="+ constructor(confInput: Object)" style="text;strokeColor=none;fillColor=none;align=left;verticalAlign=top;spacingLeft=4;spacingRight=4;overflow=hidden;rotatable=0;points=[[0,0.5],[1,0.5]];portConstraint=eastwest;" vertex="1" parent="tYB3oNeRG_XZsH0IazMp-12">
                    <mxGeometry y="60" width="180" height="26" as="geometry"/>
                </mxCell>
                <mxCell id="tYB3oNeRG_XZsH0IazMp-16" value="Select" style="swimlane;fontStyle=1;align=center;verticalAlign=top;childLayout=stackLayout;horizontal=1;startSize=26;horizontalStack=0;resizeParent=1;resizeParentMax=0;resizeLast=0;collapsible=1;marginBottom=0;fillColor=#1ba1e2;fontColor=#ffffff;strokeColor=#006EAF;" vertex="1" parent="ObLxaBhGWvZHIA5DmIsv-1">
                    <mxGeometry x="-860" y="1220" width="390" height="140" as="geometry"/>
                </mxCell>
                <mxCell id="tYB3oNeRG_XZsH0IazMp-17" value="+ type: String" style="text;strokeColor=none;fillColor=none;align=left;verticalAlign=top;spacingLeft=4;spacingRight=4;overflow=hidden;rotatable=0;points=[[0,0.5],[1,0.5]];portConstraint=eastwest;" vertex="1" parent="tYB3oNeRG_XZsH0IazMp-16">
                    <mxGeometry y="26" width="390" height="26" as="geometry"/>
                </mxCell>
                <mxCell id="tYB3oNeRG_XZsH0IazMp-18" value="" style="line;strokeWidth=1;fillColor=none;align=left;verticalAlign=middle;spacingTop=-1;spacingLeft=3;spacingRight=3;rotatable=0;labelPosition=right;points=[];portConstraint=eastwest;" vertex="1" parent="tYB3oNeRG_XZsH0IazMp-16">
                    <mxGeometry y="52" width="390" height="8" as="geometry"/>
                </mxCell>
                <mxCell id="tYB3oNeRG_XZsH0IazMp-19" value="+ constructor(confInput: Object)&#10;+ getInput(): String&#10;+ getLabel(): String&#10;+ getOptions(): String&#10;+ getCollectionOption(collection_name: String, attributes: String): String" style="text;strokeColor=none;fillColor=none;align=left;verticalAlign=top;spacingLeft=4;spacingRight=4;overflow=hidden;rotatable=0;points=[[0,0.5],[1,0.5]];portConstraint=eastwest;" vertex="1" parent="tYB3oNeRG_XZsH0IazMp-16">
                    <mxGeometry y="60" width="390" height="80" as="geometry"/>
                </mxCell>
                <mxCell id="tYB3oNeRG_XZsH0IazMp-40" style="edgeStyle=orthogonalEdgeStyle;html=1;endArrow=classic;endFill=1;startSize=6;endSize=6;" edge="1" parent="ObLxaBhGWvZHIA5DmIsv-1" source="tYB3oNeRG_XZsH0IazMp-20" target="tYB3oNeRG_XZsH0IazMp-16">
                    <mxGeometry relative="1" as="geometry">
                        <Array as="points">
                            <mxPoint x="-665" y="1473"/>
                        </Array>
                    </mxGeometry>
                </mxCell>
                <mxCell id="tYB3oNeRG_XZsH0IazMp-41" style="edgeStyle=orthogonalEdgeStyle;html=1;endArrow=classic;endFill=1;startSize=6;endSize=6;" edge="1" parent="ObLxaBhGWvZHIA5DmIsv-1" source="tYB3oNeRG_XZsH0IazMp-20" target="tYB3oNeRG_XZsH0IazMp-8">
                    <mxGeometry relative="1" as="geometry"/>
                </mxCell>
                <mxCell id="tYB3oNeRG_XZsH0IazMp-42" style="edgeStyle=orthogonalEdgeStyle;html=1;endArrow=classic;endFill=1;startSize=6;endSize=6;" edge="1" parent="ObLxaBhGWvZHIA5DmIsv-1" source="tYB3oNeRG_XZsH0IazMp-20" target="tYB3oNeRG_XZsH0IazMp-4">
                    <mxGeometry relative="1" as="geometry"/>
                </mxCell>
                <mxCell id="tYB3oNeRG_XZsH0IazMp-43" style="edgeStyle=orthogonalEdgeStyle;html=1;endArrow=classic;endFill=1;startSize=6;endSize=6;" edge="1" parent="ObLxaBhGWvZHIA5DmIsv-1" source="tYB3oNeRG_XZsH0IazMp-20" target="tYB3oNeRG_XZsH0IazMp-12">
                    <mxGeometry relative="1" as="geometry"/>
                </mxCell>
                <mxCell id="tYB3oNeRG_XZsH0IazMp-44" style="edgeStyle=orthogonalEdgeStyle;html=1;endArrow=classic;endFill=1;startSize=6;endSize=6;" edge="1" parent="ObLxaBhGWvZHIA5DmIsv-1" source="tYB3oNeRG_XZsH0IazMp-20" target="tYB3oNeRG_XZsH0IazMp-28">
                    <mxGeometry relative="1" as="geometry"/>
                </mxCell>
                <mxCell id="tYB3oNeRG_XZsH0IazMp-20" value="FieldFactory" style="swimlane;fontStyle=1;align=center;verticalAlign=top;childLayout=stackLayout;horizontal=1;startSize=26;horizontalStack=0;resizeParent=1;resizeParentMax=0;resizeLast=0;collapsible=1;marginBottom=0;fillColor=#1ba1e2;fontColor=#ffffff;strokeColor=#006EAF;" vertex="1" parent="ObLxaBhGWvZHIA5DmIsv-1">
                    <mxGeometry x="-480" y="1430" width="170" height="86" as="geometry"/>
                </mxCell>
                <mxCell id="tYB3oNeRG_XZsH0IazMp-21" value="+ " style="text;strokeColor=none;fillColor=none;align=left;verticalAlign=top;spacingLeft=4;spacingRight=4;overflow=hidden;rotatable=0;points=[[0,0.5],[1,0.5]];portConstraint=eastwest;" vertex="1" parent="tYB3oNeRG_XZsH0IazMp-20">
                    <mxGeometry y="26" width="170" height="26" as="geometry"/>
                </mxCell>
                <mxCell id="tYB3oNeRG_XZsH0IazMp-22" value="" style="line;strokeWidth=1;fillColor=none;align=left;verticalAlign=middle;spacingTop=-1;spacingLeft=3;spacingRight=3;rotatable=0;labelPosition=right;points=[];portConstraint=eastwest;" vertex="1" parent="tYB3oNeRG_XZsH0IazMp-20">
                    <mxGeometry y="52" width="170" height="8" as="geometry"/>
                </mxCell>
                <mxCell id="tYB3oNeRG_XZsH0IazMp-23" value="+ getField(field: Object): Field" style="text;strokeColor=none;fillColor=none;align=left;verticalAlign=top;spacingLeft=4;spacingRight=4;overflow=hidden;rotatable=0;points=[[0,0.5],[1,0.5]];portConstraint=eastwest;" vertex="1" parent="tYB3oNeRG_XZsH0IazMp-20">
                    <mxGeometry y="60" width="170" height="26" as="geometry"/>
                </mxCell>
                <mxCell id="tYB3oNeRG_XZsH0IazMp-24" value="Field" style="swimlane;fontStyle=1;align=center;verticalAlign=top;childLayout=stackLayout;horizontal=1;startSize=26;horizontalStack=0;resizeParent=1;resizeParentMax=0;resizeLast=0;collapsible=1;marginBottom=0;fillColor=#1ba1e2;fontColor=#ffffff;strokeColor=#006EAF;" vertex="1" parent="ObLxaBhGWvZHIA5DmIsv-1">
                    <mxGeometry x="-1292.5" y="880" width="285" height="250" as="geometry"/>
                </mxCell>
                <mxCell id="tYB3oNeRG_XZsH0IazMp-25" value="formName: String&#10;id: String&#10;label: String&#10;name: String&#10;type: String&#10;value: String&#10;config: Object&#10;cols: String" style="text;strokeColor=none;fillColor=none;align=left;verticalAlign=top;spacingLeft=4;spacingRight=4;overflow=hidden;rotatable=0;points=[[0,0.5],[1,0.5]];portConstraint=eastwest;" vertex="1" parent="tYB3oNeRG_XZsH0IazMp-24">
                    <mxGeometry y="26" width="285" height="124" as="geometry"/>
                </mxCell>
                <mxCell id="tYB3oNeRG_XZsH0IazMp-26" value="" style="line;strokeWidth=1;fillColor=none;align=left;verticalAlign=middle;spacingTop=-1;spacingLeft=3;spacingRight=3;rotatable=0;labelPosition=right;points=[];portConstraint=eastwest;" vertex="1" parent="tYB3oNeRG_XZsH0IazMp-24">
                    <mxGeometry y="150" width="285" height="8" as="geometry"/>
                </mxCell>
                <mxCell id="tYB3oNeRG_XZsH0IazMp-27" value="+ constructor(confInput: Object)&#10;+ setValue(value): void&#10;+ getInput(): String&#10;+ getLabel(): String&#10;+ dsp(): String&#10;+ getCollectionData(collection_name: String): Array" style="text;strokeColor=none;fillColor=none;align=left;verticalAlign=top;spacingLeft=4;spacingRight=4;overflow=hidden;rotatable=0;points=[[0,0.5],[1,0.5]];portConstraint=eastwest;" vertex="1" parent="tYB3oNeRG_XZsH0IazMp-24">
                    <mxGeometry y="158" width="285" height="92" as="geometry"/>
                </mxCell>
                <mxCell id="tYB3oNeRG_XZsH0IazMp-32" style="edgeStyle=orthogonalEdgeStyle;html=1;endArrow=block;endFill=1;startSize=6;endSize=12;" edge="1" parent="ObLxaBhGWvZHIA5DmIsv-1" source="tYB3oNeRG_XZsH0IazMp-28" target="tYB3oNeRG_XZsH0IazMp-24">
                    <mxGeometry relative="1" as="geometry">
                        <Array as="points">
                            <mxPoint x="-1545" y="1058"/>
                        </Array>
                    </mxGeometry>
                </mxCell>
                <mxCell id="tYB3oNeRG_XZsH0IazMp-28" value="Password" style="swimlane;fontStyle=1;align=center;verticalAlign=top;childLayout=stackLayout;horizontal=1;startSize=26;horizontalStack=0;resizeParent=1;resizeParentMax=0;resizeLast=0;collapsible=1;marginBottom=0;fillColor=#1ba1e2;fontColor=#ffffff;strokeColor=#006EAF;" vertex="1" parent="ObLxaBhGWvZHIA5DmIsv-1">
                    <mxGeometry x="-1620" y="1220" width="180" height="86" as="geometry"/>
                </mxCell>
                <mxCell id="tYB3oNeRG_XZsH0IazMp-29" value="+ type: String" style="text;align=left;verticalAlign=top;spacingLeft=4;spacingRight=4;overflow=hidden;rotatable=0;points=[[0,0.5],[1,0.5]];portConstraint=eastwest;" vertex="1" parent="tYB3oNeRG_XZsH0IazMp-28">
                    <mxGeometry y="26" width="180" height="26" as="geometry"/>
                </mxCell>
                <mxCell id="tYB3oNeRG_XZsH0IazMp-30" value="" style="line;strokeWidth=1;fillColor=none;align=left;verticalAlign=middle;spacingTop=-1;spacingLeft=3;spacingRight=3;rotatable=0;labelPosition=right;points=[];portConstraint=eastwest;" vertex="1" parent="tYB3oNeRG_XZsH0IazMp-28">
                    <mxGeometry y="52" width="180" height="8" as="geometry"/>
                </mxCell>
                <mxCell id="tYB3oNeRG_XZsH0IazMp-31" value="+ constructor(confInput: Object)" style="text;strokeColor=none;fillColor=none;align=left;verticalAlign=top;spacingLeft=4;spacingRight=4;overflow=hidden;rotatable=0;points=[[0,0.5],[1,0.5]];portConstraint=eastwest;" vertex="1" parent="tYB3oNeRG_XZsH0IazMp-28">
                    <mxGeometry y="60" width="180" height="26" as="geometry"/>
                </mxCell>
                <mxCell id="tYB3oNeRG_XZsH0IazMp-33" style="edgeStyle=orthogonalEdgeStyle;html=1;endArrow=block;endFill=1;startSize=6;endSize=12;exitX=0.5;exitY=0;exitDx=0;exitDy=0;" edge="1" parent="ObLxaBhGWvZHIA5DmIsv-1" source="tYB3oNeRG_XZsH0IazMp-12" target="tYB3oNeRG_XZsH0IazMp-24">
                    <mxGeometry relative="1" as="geometry">
                        <mxPoint x="-1375" y="1200" as="sourcePoint"/>
                        <mxPoint x="-1225" y="840.9999999999995" as="targetPoint"/>
                        <Array as="points">
                            <mxPoint x="-1340" y="1078"/>
                        </Array>
                    </mxGeometry>
                </mxCell>
                <mxCell id="lDwLo3Hw_SSHz3EmmH_j-0" value="DynamicModel" style="swimlane;fontStyle=1;align=center;verticalAlign=top;childLayout=stackLayout;horizontal=1;startSize=26;horizontalStack=0;resizeParent=1;resizeParentMax=0;resizeLast=0;collapsible=1;marginBottom=0;fillColor=#a20025;fontColor=#ffffff;strokeColor=#6F0000;" vertex="1" parent="ObLxaBhGWvZHIA5DmIsv-1">
                    <mxGeometry x="-870" y="300" width="160" height="150" as="geometry"/>
                </mxCell>
                <mxCell id="lDwLo3Hw_SSHz3EmmH_j-1" value="+ field: type" style="text;strokeColor=none;fillColor=none;align=left;verticalAlign=top;spacingLeft=4;spacingRight=4;overflow=hidden;rotatable=0;points=[[0,0.5],[1,0.5]];portConstraint=eastwest;" vertex="1" parent="lDwLo3Hw_SSHz3EmmH_j-0">
                    <mxGeometry y="26" width="160" height="26" as="geometry"/>
                </mxCell>
                <mxCell id="lDwLo3Hw_SSHz3EmmH_j-2" value="" style="line;strokeWidth=1;fillColor=none;align=left;verticalAlign=middle;spacingTop=-1;spacingLeft=3;spacingRight=3;rotatable=0;labelPosition=right;points=[];portConstraint=eastwest;" vertex="1" parent="lDwLo3Hw_SSHz3EmmH_j-0">
                    <mxGeometry y="52" width="160" height="8" as="geometry"/>
                </mxCell>
                <mxCell id="lDwLo3Hw_SSHz3EmmH_j-3" value="+ find({})&#10;+ findById(id)&#10;+ findByIdAndDelete(id)&#10;+ findByIdAndUpdate(id, {})&#10;+ save()&#10;" style="text;strokeColor=none;fillColor=none;align=left;verticalAlign=top;spacingLeft=4;spacingRight=4;overflow=hidden;rotatable=0;points=[[0,0.5],[1,0.5]];portConstraint=eastwest;fontStyle=0" vertex="1" parent="lDwLo3Hw_SSHz3EmmH_j-0">
                    <mxGeometry y="60" width="160" height="90" as="geometry"/>
                </mxCell>
                <mxCell id="lDwLo3Hw_SSHz3EmmH_j-4" style="edgeStyle=elbowEdgeStyle;html=1;endArrow=classic;endFill=1;startSize=6;endSize=6;exitX=0;exitY=0.5;exitDx=0;exitDy=0;" edge="1" parent="ObLxaBhGWvZHIA5DmIsv-1" source="ObLxaBhGWvZHIA5DmIsv-57" target="lDwLo3Hw_SSHz3EmmH_j-3">
                    <mxGeometry relative="1" as="geometry">
                        <Array as="points">
                            <mxPoint x="-750" y="450"/>
                            <mxPoint x="-350" y="680"/>
                        </Array>
                    </mxGeometry>
                </mxCell>
            </root>
        </mxGraphModel>
    </diagram>
</mxfile>